<?xml version="1.0" encoding="UTF-8"?>
<!DOCTYPE svg PUBLIC "-//W3C//DTD SVG 1.1//EN" "http://www.w3.org/Graphics/SVG/1.1/DTD/svg11.dtd">
<!-- Creator: CorelDRAW 2021.5 -->
<svg xmlns="http://www.w3.org/2000/svg" xml:space="preserve" width="100px" height="100px" version="1.1" style="shape-rendering:geometricPrecision; text-rendering:geometricPrecision; image-rendering:optimizeQuality; fill-rule:evenodd; clip-rule:evenodd"
viewBox="0 0 100 100"
 xmlns:xlink="http://www.w3.org/1999/xlink"
 xmlns:xodm="http://www.corel.com/coreldraw/odm/2003">
 <defs>
  <style type="text/css">
   <![CDATA[
    .fil0 {fill:#003475}
    .fil1 {fill:#003476}
    .fil2 {fill:#003477}
    .fil3 {fill:#003577}
    .fil4 {fill:#003578}
    .fil5 {fill:#003579}
    .fil6 {fill:#003679}
    .fil7 {fill:#00367A}
    .fil8 {fill:#00367B}
    .fil9 {fill:#00377B}
    .fil10 {fill:#00377C}
    .fil11 {fill:#00377D}
    .fil12 {fill:#00387D}
    .fil13 {fill:#00387E}
    .fil14 {fill:#00387F}
    .fil15 {fill:#00397F}
    .fil16 {fill:#003980}
    .fil17 {fill:#003981}
    .fil18 {fill:#003A81}
    .fil19 {fill:#003A82}
    .fil20 {fill:#003A83}
    .fil21 {fill:#003B83}
    .fil22 {fill:#003B84}
    .fil23 {fill:#003B85}
    .fil24 {fill:#003C85}
    .fil25 {fill:#003C86}
    .fil26 {fill:#003C87}
    .fil27 {fill:#003D87}
    .fil28 {fill:#003D88}
    .fil29 {fill:#003D89}
    .fil30 {fill:#003E89}
    .fil31 {fill:#003E8A}
    .fil32 {fill:#003E8B}
    .fil33 {fill:#003F8B}
    .fil34 {fill:#003F8C}
    .fil35 {fill:#00408D}
    .fil36 {fill:#00408E}
    .fil37 {fill:#00418E}
    .fil38 {fill:#00418F}
    .fil39 {fill:#004190}
    .fil40 {fill:#004290}
    .fil41 {fill:#004291}
    .fil42 {fill:#004292}
    .fil43 {fill:#004392}
    .fil44 {fill:#004393}
    .fil45 {fill:#004394}
    .fil46 {fill:#004494}
    .fil47 {fill:#004495}
    .fil48 {fill:#004496}
    .fil49 {fill:#004596}
    .fil50 {fill:#004597}
    .fil51 {fill:#004598}
    .fil52 {fill:#004698}
    .fil53 {fill:#004699}
    .fil54 {fill:#00469A}
    .fil55 {fill:#00479A}
    .fil56 {fill:#00479B}
    .fil57 {fill:#00479C}
    .fil58 {fill:#00489C}
    .fil59 {fill:#00489D}
    .fil60 {fill:#00489E}
    .fil61 {fill:#00499E}
    .fil62 {fill:#00499F}
    .fil63 {fill:#0049A0}
    .fil64 {fill:#004AA0}
    .fil65 {fill:#004AA1}
    .fil66 {fill:#004AA2}
    .fil67 {fill:#004BA2}
    .fil68 {fill:#004BA3}
    .fil69 {fill:#004BA4}
    .fil70 {fill:#004CA4}
    .fil71 {fill:#004CA5}
    .fil72 {fill:white;fill-rule:nonzero}
   ]]>
  </style>
     <clipPath id="id0">
      <path d="M50 0c27.61,0 50,22.39 50,50 0,27.62 -22.39,50 -50,50 -27.61,0 -50,-22.38 -50,-50 0,-27.61 22.39,-50 50,-50z"/>
     </clipPath>
 </defs>
 <g id="Слой_x0020_1">
  <metadata id="CorelCorpID_0Corel-Layer"/>
  <g id="_2808363151904">
   <g>
    <g style="clip-path:url(#id0)">
     <polygon class="fil0" points="0,100 0,99.94 100,99.94 100,100 "/>
     <polygon id="_1" class="fil0" points="0,99.99 0,99.84 100,99.84 100,99.99 "/>
     <polygon id="_2" class="fil0" points="0,99.89 0,99.74 100,99.74 100,99.89 "/>
     <polygon id="_3" class="fil0" points="0,99.79 0,99.64 100,99.64 100,99.79 "/>
     <polygon id="_4" class="fil0" points="0,99.69 0,99.54 100,99.54 100,99.69 "/>
     <polygon id="_5" class="fil0" points="0,99.59 0,99.44 100,99.44 100,99.59 "/>
     <polygon id="_6" class="fil1" points="0,99.49 0,99.34 100,99.34 100,99.49 "/>
     <polygon id="_7" class="fil1" points="0,99.39 0,99.24 100,99.24 100,99.39 "/>
     <polygon id="_8" class="fil1" points="0,99.29 0,99.14 100,99.14 100,99.29 "/>
     <polygon id="_9" class="fil1" points="0,99.19 0,99.04 100,99.04 100,99.19 "/>
     <polygon id="_10" class="fil1" points="0,99.09 0,98.94 100,98.94 100,99.09 "/>
     <polygon id="_11" class="fil1" points="0,98.99 0,98.84 100,98.84 100,98.99 "/>
     <polygon id="_12" class="fil1" points="0,98.89 0,98.74 100,98.74 100,98.89 "/>
     <polygon id="_13" class="fil1" points="0,98.79 0,98.64 100,98.64 100,98.79 "/>
     <polygon id="_14" class="fil1" points="0,98.69 0,98.54 100,98.54 100,98.69 "/>
     <polygon id="_15" class="fil1" points="0,98.59 0,98.44 100,98.44 100,98.59 "/>
     <polygon id="_16" class="fil1" points="0,98.49 0,98.34 100,98.34 100,98.49 "/>
     <polygon id="_17" class="fil1" points="0,98.39 0,98.24 100,98.24 100,98.39 "/>
     <polygon id="_18" class="fil1" points="0,98.29 0,98.14 100,98.14 100,98.29 "/>
     <polygon id="_19" class="fil1" points="0,98.19 0,98.04 100,98.04 100,98.19 "/>
     <polygon id="_20" class="fil1" points="0,98.09 0,97.94 100,97.94 100,98.09 "/>
     <polygon id="_21" class="fil1" points="0,97.99 0,97.84 100,97.84 100,97.99 "/>
     <polygon id="_22" class="fil1" points="0,97.89 0,97.74 100,97.74 100,97.89 "/>
     <polygon id="_23" class="fil1" points="0,97.79 0,97.64 100,97.64 100,97.79 "/>
     <polygon id="_24" class="fil1" points="0,97.69 0,97.54 100,97.54 100,97.69 "/>
     <polygon id="_25" class="fil1" points="0,97.59 0,97.44 100,97.44 100,97.59 "/>
     <polygon id="_26" class="fil1" points="0,97.49 0,97.34 100,97.34 100,97.49 "/>
     <polygon id="_27" class="fil1" points="0,97.39 0,97.24 100,97.24 100,97.39 "/>
     <polygon id="_28" class="fil1" points="0,97.29 0,97.14 100,97.14 100,97.29 "/>
     <polygon id="_29" class="fil1" points="0,97.19 0,97.04 100,97.04 100,97.19 "/>
     <polygon id="_30" class="fil1" points="0,97.09 0,96.94 100,96.94 100,97.09 "/>
     <polygon id="_31" class="fil1" points="0,96.99 0,96.84 100,96.84 100,96.99 "/>
     <polygon id="_32" class="fil1" points="0,96.89 0,96.74 100,96.74 100,96.89 "/>
     <polygon id="_33" class="fil1" points="0,96.79 0,96.64 100,96.64 100,96.79 "/>
     <polygon id="_34" class="fil1" points="0,96.69 0,96.54 100,96.54 100,96.69 "/>
     <polygon id="_35" class="fil1" points="0,96.59 0,96.44 100,96.44 100,96.59 "/>
     <polygon id="_36" class="fil1" points="0,96.49 0,96.34 100,96.34 100,96.49 "/>
     <polygon id="_37" class="fil1" points="0,96.39 0,96.24 100,96.24 100,96.39 "/>
     <polygon id="_38" class="fil2" points="0,96.29 0,96.14 100,96.14 100,96.29 "/>
     <polygon id="_39" class="fil2" points="0,96.19 0,96.04 100,96.04 100,96.19 "/>
     <polygon id="_40" class="fil2" points="0,96.09 0,95.94 100,95.94 100,96.09 "/>
     <polygon id="_41" class="fil2" points="0,95.99 0,95.84 100,95.84 100,95.99 "/>
     <polygon id="_42" class="fil2" points="0,95.89 0,95.74 100,95.74 100,95.89 "/>
     <polygon id="_43" class="fil2" points="0,95.79 0,95.64 100,95.64 100,95.79 "/>
     <polygon id="_44" class="fil2" points="0,95.69 0,95.54 100,95.54 100,95.69 "/>
     <polygon id="_45" class="fil2" points="0,95.59 0,95.44 100,95.44 100,95.59 "/>
     <polygon id="_46" class="fil2" points="0,95.49 0,95.34 100,95.34 100,95.49 "/>
     <polygon id="_47" class="fil2" points="0,95.39 0,95.24 100,95.24 100,95.39 "/>
     <polygon id="_48" class="fil2" points="0,95.29 0,95.14 100,95.14 100,95.29 "/>
     <polygon id="_49" class="fil2" points="0,95.19 0,95.04 100,95.04 100,95.19 "/>
     <polygon id="_50" class="fil3" points="0,95.09 0,94.94 100,94.94 100,95.09 "/>
     <polygon id="_51" class="fil3" points="0,94.99 0,94.84 100,94.84 100,94.99 "/>
     <polygon id="_52" class="fil3" points="0,94.89 0,94.74 100,94.74 100,94.89 "/>
     <polygon id="_53" class="fil3" points="0,94.79 0,94.64 100,94.64 100,94.79 "/>
     <polygon id="_54" class="fil3" points="0,94.69 0,94.54 100,94.54 100,94.69 "/>
     <polygon id="_55" class="fil3" points="0,94.59 0,94.44 100,94.44 100,94.59 "/>
     <polygon id="_56" class="fil3" points="0,94.49 0,94.34 100,94.34 100,94.49 "/>
     <polygon id="_57" class="fil3" points="0,94.39 0,94.24 100,94.24 100,94.39 "/>
     <polygon id="_58" class="fil3" points="0,94.29 0,94.14 100,94.14 100,94.29 "/>
     <polygon id="_59" class="fil3" points="0,94.19 0,94.04 100,94.04 100,94.19 "/>
     <polygon id="_60" class="fil3" points="0,94.09 0,93.93 100,93.93 100,94.09 "/>
     <polygon id="_61" class="fil3" points="0,93.99 0,93.84 100,93.84 100,93.99 "/>
     <polygon id="_62" class="fil3" points="0,93.89 0,93.74 100,93.74 100,93.89 "/>
     <polygon id="_63" class="fil3" points="0,93.78 0,93.63 100,93.63 100,93.78 "/>
     <polygon id="_64" class="fil3" points="0,93.69 0,93.53 100,93.53 100,93.69 "/>
     <polygon id="_65" class="fil4" points="0,93.59 0,93.44 100,93.44 100,93.59 "/>
     <polygon id="_66" class="fil4" points="0,93.48 0,93.33 100,93.33 100,93.48 "/>
     <polygon id="_67" class="fil4" points="0,93.38 0,93.23 100,93.23 100,93.38 "/>
     <polygon id="_68" class="fil4" points="0,93.28 0,93.13 100,93.13 100,93.28 "/>
     <polygon id="_69" class="fil4" points="0,93.18 0,93.03 100,93.03 100,93.18 "/>
     <polygon id="_70" class="fil4" points="0,93.08 0,92.93 100,92.93 100,93.08 "/>
     <polygon id="_71" class="fil4" points="0,92.98 0,92.83 100,92.83 100,92.98 "/>
     <polygon id="_72" class="fil4" points="0,92.88 0,92.73 100,92.73 100,92.88 "/>
     <polygon id="_73" class="fil4" points="0,92.78 0,92.63 100,92.63 100,92.78 "/>
     <polygon id="_74" class="fil4" points="0,92.68 0,92.53 100,92.53 100,92.68 "/>
     <polygon id="_75" class="fil4" points="0,92.58 0,92.43 100,92.43 100,92.58 "/>
     <polygon id="_76" class="fil4" points="0,92.48 0,92.33 100,92.33 100,92.48 "/>
     <polygon id="_77" class="fil4" points="0,92.38 0,92.23 100,92.23 100,92.38 "/>
     <polygon id="_78" class="fil4" points="0,92.28 0,92.13 100,92.13 100,92.28 "/>
     <polygon id="_79" class="fil4" points="0,92.18 0,92.03 100,92.03 100,92.18 "/>
     <polygon id="_80" class="fil4" points="0,92.08 0,91.93 100,91.93 100,92.08 "/>
     <polygon id="_81" class="fil4" points="0,91.98 0,91.83 100,91.83 100,91.98 "/>
     <polygon id="_82" class="fil4" points="0,91.88 0,91.73 100,91.73 100,91.88 "/>
     <polygon id="_83" class="fil4" points="0,91.78 0,91.63 100,91.63 100,91.78 "/>
     <polygon id="_84" class="fil4" points="0,91.68 0,91.53 100,91.53 100,91.68 "/>
     <polygon id="_85" class="fil4" points="0,91.58 0,91.43 100,91.43 100,91.58 "/>
     <polygon id="_86" class="fil4" points="0,91.48 0,91.33 100,91.33 100,91.48 "/>
     <polygon id="_87" class="fil4" points="0,91.38 0,91.23 100,91.23 100,91.38 "/>
     <polygon id="_88" class="fil5" points="0,91.28 0,91.13 100,91.13 100,91.28 "/>
     <polygon id="_89" class="fil5" points="0,91.18 0,91.03 100,91.03 100,91.18 "/>
     <polygon id="_90" class="fil5" points="0,91.08 0,90.93 100,90.93 100,91.08 "/>
     <polygon id="_91" class="fil5" points="0,90.98 0,90.83 100,90.83 100,90.98 "/>
     <polygon id="_92" class="fil5" points="0,90.88 0,90.73 100,90.73 100,90.88 "/>
     <polygon id="_93" class="fil5" points="0,90.78 0,90.63 100,90.63 100,90.78 "/>
     <polygon id="_94" class="fil5" points="0,90.68 0,90.53 100,90.53 100,90.68 "/>
     <polygon id="_95" class="fil5" points="0,90.58 0,90.43 100,90.43 100,90.58 "/>
     <polygon id="_96" class="fil5" points="0,90.48 0,90.33 100,90.33 100,90.48 "/>
     <polygon id="_97" class="fil6" points="0,90.38 0,90.23 100,90.23 100,90.38 "/>
     <polygon id="_98" class="fil6" points="0,90.28 0,90.13 100,90.13 100,90.28 "/>
     <polygon id="_99" class="fil6" points="0,90.18 0,90.03 100,90.03 100,90.18 "/>
     <polygon id="_100" class="fil6" points="0,90.08 0,89.93 100,89.93 100,90.08 "/>
     <polygon id="_101" class="fil6" points="0,89.98 0,89.83 100,89.83 100,89.98 "/>
     <polygon id="_102" class="fil6" points="0,89.88 0,89.73 100,89.73 100,89.88 "/>
     <polygon id="_103" class="fil6" points="0,89.78 0,89.63 100,89.63 100,89.78 "/>
     <polygon id="_104" class="fil6" points="0,89.68 0,89.53 100,89.53 100,89.68 "/>
     <polygon id="_105" class="fil6" points="0,89.58 0,89.43 100,89.43 100,89.58 "/>
     <polygon id="_106" class="fil6" points="0,89.48 0,89.33 100,89.33 100,89.48 "/>
     <polygon id="_107" class="fil6" points="0,89.38 0,89.23 100,89.23 100,89.38 "/>
     <polygon id="_108" class="fil6" points="0,89.28 0,89.13 100,89.13 100,89.28 "/>
     <polygon id="_109" class="fil6" points="0,89.18 0,89.03 100,89.03 100,89.18 "/>
     <polygon id="_110" class="fil7" points="0,89.08 0,88.93 100,88.93 100,89.08 "/>
     <polygon id="_111" class="fil7" points="0,88.98 0,88.83 100,88.83 100,88.98 "/>
     <polygon id="_112" class="fil7" points="0,88.88 0,88.73 100,88.73 100,88.88 "/>
     <polygon id="_113" class="fil7" points="0,88.78 0,88.63 100,88.63 100,88.78 "/>
     <polygon id="_114" class="fil7" points="0,88.68 0,88.53 100,88.53 100,88.68 "/>
     <polygon id="_115" class="fil7" points="0,88.58 0,88.43 100,88.43 100,88.58 "/>
     <polygon id="_116" class="fil7" points="0,88.48 0,88.33 100,88.33 100,88.48 "/>
     <polygon id="_117" class="fil7" points="0,88.38 0,88.23 100,88.23 100,88.38 "/>
     <polygon id="_118" class="fil7" points="0,88.28 0,88.13 100,88.13 100,88.28 "/>
     <polygon id="_119" class="fil7" points="0,88.18 0,88.03 100,88.03 100,88.18 "/>
     <polygon id="_120" class="fil7" points="0,88.08 0,87.93 100,87.93 100,88.08 "/>
     <polygon id="_121" class="fil7" points="0,87.98 0,87.83 100,87.83 100,87.98 "/>
     <polygon id="_122" class="fil7" points="0,87.88 0,87.73 100,87.73 100,87.88 "/>
     <polygon id="_123" class="fil7" points="0,87.78 0,87.63 100,87.63 100,87.78 "/>
     <polygon id="_124" class="fil7" points="0,87.68 0,87.53 100,87.53 100,87.68 "/>
     <polygon id="_125" class="fil7" points="0,87.58 0,87.43 100,87.43 100,87.58 "/>
     <polygon id="_126" class="fil7" points="0,87.48 0,87.33 100,87.33 100,87.48 "/>
     <polygon id="_127" class="fil7" points="0,87.38 0,87.23 100,87.23 100,87.38 "/>
     <polygon id="_128" class="fil7" points="0,87.28 0,87.13 100,87.13 100,87.28 "/>
     <polygon id="_129" class="fil8" points="0,87.18 0,87.03 100,87.03 100,87.18 "/>
     <polygon id="_130" class="fil8" points="0,87.08 0,86.93 100,86.93 100,87.08 "/>
     <polygon id="_131" class="fil8" points="0,86.98 0,86.83 100,86.83 100,86.98 "/>
     <polygon id="_132" class="fil8" points="0,86.88 0,86.73 100,86.73 100,86.88 "/>
     <polygon id="_133" class="fil8" points="0,86.78 0,86.63 100,86.63 100,86.78 "/>
     <polygon id="_134" class="fil8" points="0,86.68 0,86.53 100,86.53 100,86.68 "/>
     <polygon id="_135" class="fil8" points="0,86.58 0,86.43 100,86.43 100,86.58 "/>
     <polygon id="_136" class="fil9" points="0,86.48 0,86.33 100,86.33 100,86.48 "/>
     <polygon id="_137" class="fil9" points="0,86.38 0,86.23 100,86.23 100,86.38 "/>
     <polygon id="_138" class="fil9" points="0,86.28 0,86.13 100,86.13 100,86.28 "/>
     <polygon id="_139" class="fil9" points="0,86.18 0,86.03 100,86.03 100,86.18 "/>
     <polygon id="_140" class="fil9" points="0,86.08 0,85.93 100,85.93 100,86.08 "/>
     <polygon id="_141" class="fil9" points="0,85.98 0,85.83 100,85.83 100,85.98 "/>
     <polygon id="_142" class="fil9" points="0,85.88 0,85.73 100,85.73 100,85.88 "/>
     <polygon id="_143" class="fil9" points="0,85.78 0,85.63 100,85.63 100,85.78 "/>
     <polygon id="_144" class="fil9" points="0,85.68 0,85.53 100,85.53 100,85.68 "/>
     <polygon id="_145" class="fil9" points="0,85.58 0,85.43 100,85.43 100,85.58 "/>
     <polygon id="_146" class="fil9" points="0,85.48 0,85.33 100,85.33 100,85.48 "/>
     <polygon id="_147" class="fil9" points="0,85.38 0,85.23 100,85.23 100,85.38 "/>
     <polygon id="_148" class="fil10" points="0,85.28 0,85.13 100,85.13 100,85.28 "/>
     <polygon id="_149" class="fil10" points="0,85.18 0,85.03 100,85.03 100,85.18 "/>
     <polygon id="_150" class="fil10" points="0,85.08 0,84.93 100,84.93 100,85.08 "/>
     <polygon id="_151" class="fil10" points="0,84.98 0,84.83 100,84.83 100,84.98 "/>
     <polygon id="_152" class="fil10" points="0,84.88 0,84.73 100,84.73 100,84.88 "/>
     <polygon id="_153" class="fil10" points="0,84.78 0,84.63 100,84.63 100,84.78 "/>
     <polygon id="_154" class="fil10" points="0,84.68 0,84.53 100,84.53 100,84.68 "/>
     <polygon id="_155" class="fil10" points="0,84.58 0,84.43 100,84.43 100,84.58 "/>
     <polygon id="_156" class="fil10" points="0,84.48 0,84.33 100,84.33 100,84.48 "/>
     <polygon id="_157" class="fil10" points="0,84.38 0,84.23 100,84.23 100,84.38 "/>
     <polygon id="_158" class="fil10" points="0,84.28 0,84.13 100,84.13 100,84.28 "/>
     <polygon id="_159" class="fil10" points="0,84.18 0,84.03 100,84.03 100,84.18 "/>
     <polygon id="_160" class="fil10" points="0,84.08 0,83.93 100,83.93 100,84.08 "/>
     <polygon id="_161" class="fil10" points="0,83.98 0,83.82 100,83.82 100,83.98 "/>
     <polygon id="_162" class="fil10" points="0,83.88 0,83.73 100,83.73 100,83.88 "/>
     <polygon id="_163" class="fil10" points="0,83.78 0,83.63 100,83.63 100,83.78 "/>
     <polygon id="_164" class="fil10" points="0,83.67 0,83.52 100,83.52 100,83.67 "/>
     <polygon id="_165" class="fil10" points="0,83.58 0,83.42 100,83.42 100,83.58 "/>
     <polygon id="_166" class="fil11" points="0,83.48 0,83.33 100,83.33 100,83.48 "/>
     <polygon id="_167" class="fil11" points="0,83.37 0,83.22 100,83.22 100,83.37 "/>
     <polygon id="_168" class="fil11" points="0,83.27 0,83.12 100,83.12 100,83.27 "/>
     <polygon id="_169" class="fil11" points="0,83.18 0,83.02 100,83.02 100,83.18 "/>
     <polygon id="_170" class="fil11" points="0,83.07 0,82.92 100,82.92 100,83.07 "/>
     <polygon id="_171" class="fil11" points="0,82.97 0,82.82 100,82.82 100,82.97 "/>
     <polygon id="_172" class="fil12" points="0,82.87 0,82.72 100,82.72 100,82.87 "/>
     <polygon id="_173" class="fil12" points="0,82.77 0,82.62 100,82.62 100,82.77 "/>
     <polygon id="_174" class="fil12" points="0,82.67 0,82.52 100,82.52 100,82.67 "/>
     <polygon id="_175" class="fil12" points="0,82.57 0,82.42 100,82.42 100,82.57 "/>
     <polygon id="_176" class="fil12" points="0,82.47 0,82.32 100,82.32 100,82.47 "/>
     <polygon id="_177" class="fil12" points="0,82.37 0,82.22 100,82.22 100,82.37 "/>
     <polygon id="_178" class="fil12" points="0,82.27 0,82.12 100,82.12 100,82.27 "/>
     <polygon id="_179" class="fil12" points="0,82.17 0,82.02 100,82.02 100,82.17 "/>
     <polygon id="_180" class="fil12" points="0,82.07 0,81.92 100,81.92 100,82.07 "/>
     <polygon id="_181" class="fil12" points="0,81.97 0,81.82 100,81.82 100,81.97 "/>
     <polygon id="_182" class="fil12" points="0,81.87 0,81.72 100,81.72 100,81.87 "/>
     <polygon id="_183" class="fil13" points="0,81.77 0,81.62 100,81.62 100,81.77 "/>
     <polygon id="_184" class="fil13" points="0,81.67 0,81.52 100,81.52 100,81.67 "/>
     <polygon id="_185" class="fil13" points="0,81.57 0,81.42 100,81.42 100,81.57 "/>
     <polygon id="_186" class="fil13" points="0,81.47 0,81.32 100,81.32 100,81.47 "/>
     <polygon id="_187" class="fil13" points="0,81.37 0,81.22 100,81.22 100,81.37 "/>
     <polygon id="_188" class="fil13" points="0,81.27 0,81.12 100,81.12 100,81.27 "/>
     <polygon id="_189" class="fil13" points="0,81.17 0,81.02 100,81.02 100,81.17 "/>
     <polygon id="_190" class="fil13" points="0,81.07 0,80.92 100,80.92 100,81.07 "/>
     <polygon id="_191" class="fil13" points="0,80.97 0,80.82 100,80.82 100,80.97 "/>
     <polygon id="_192" class="fil13" points="0,80.87 0,80.72 100,80.72 100,80.87 "/>
     <polygon id="_193" class="fil13" points="0,80.77 0,80.62 100,80.62 100,80.77 "/>
     <polygon id="_194" class="fil13" points="0,80.67 0,80.52 100,80.52 100,80.67 "/>
     <polygon id="_195" class="fil13" points="0,80.57 0,80.42 100,80.42 100,80.57 "/>
     <polygon id="_196" class="fil13" points="0,80.47 0,80.32 100,80.32 100,80.47 "/>
     <polygon id="_197" class="fil13" points="0,80.37 0,80.22 100,80.22 100,80.37 "/>
     <polygon id="_198" class="fil13" points="0,80.27 0,80.12 100,80.12 100,80.27 "/>
     <polygon id="_199" class="fil13" points="0,80.17 0,80.02 100,80.02 100,80.17 "/>
     <polygon id="_200" class="fil14" points="0,80.07 0,79.92 100,79.92 100,80.07 "/>
     <polygon id="_201" class="fil14" points="0,79.97 0,79.82 100,79.82 100,79.97 "/>
     <polygon id="_202" class="fil14" points="0,79.87 0,79.72 100,79.72 100,79.87 "/>
     <polygon id="_203" class="fil14" points="0,79.77 0,79.62 100,79.62 100,79.77 "/>
     <polygon id="_204" class="fil15" points="0,79.67 0,79.52 100,79.52 100,79.67 "/>
     <polygon id="_205" class="fil15" points="0,79.57 0,79.42 100,79.42 100,79.57 "/>
     <polygon id="_206" class="fil15" points="0,79.47 0,79.32 100,79.32 100,79.47 "/>
     <polygon id="_207" class="fil15" points="0,79.37 0,79.22 100,79.22 100,79.37 "/>
     <polygon id="_208" class="fil15" points="0,79.27 0,79.12 100,79.12 100,79.27 "/>
     <polygon id="_209" class="fil15" points="0,79.17 0,79.02 100,79.02 100,79.17 "/>
     <polygon id="_210" class="fil15" points="0,79.07 0,78.92 100,78.92 100,79.07 "/>
     <polygon id="_211" class="fil15" points="0,78.97 0,78.82 100,78.82 100,78.97 "/>
     <polygon id="_212" class="fil15" points="0,78.87 0,78.72 100,78.72 100,78.87 "/>
     <polygon id="_213" class="fil15" points="0,78.77 0,78.62 100,78.62 100,78.77 "/>
     <polygon id="_214" class="fil15" points="0,78.67 0,78.52 100,78.52 100,78.67 "/>
     <polygon id="_215" class="fil15" points="0,78.57 0,78.42 100,78.42 100,78.57 "/>
     <polygon id="_216" class="fil16" points="0,78.47 0,78.32 100,78.32 100,78.47 "/>
     <polygon id="_217" class="fil16" points="0,78.37 0,78.22 100,78.22 100,78.37 "/>
     <polygon id="_218" class="fil16" points="0,78.27 0,78.12 100,78.12 100,78.27 "/>
     <polygon id="_219" class="fil16" points="0,78.17 0,78.02 100,78.02 100,78.17 "/>
     <polygon id="_220" class="fil16" points="0,78.07 0,77.92 100,77.92 100,78.07 "/>
     <polygon id="_221" class="fil16" points="0,77.97 0,77.82 100,77.82 100,77.97 "/>
     <polygon id="_222" class="fil16" points="0,77.87 0,77.72 100,77.72 100,77.87 "/>
     <polygon id="_223" class="fil16" points="0,77.77 0,77.62 100,77.62 100,77.77 "/>
     <polygon id="_224" class="fil16" points="0,77.67 0,77.52 100,77.52 100,77.67 "/>
     <polygon id="_225" class="fil16" points="0,77.57 0,77.42 100,77.42 100,77.57 "/>
     <polygon id="_226" class="fil16" points="0,77.47 0,77.32 100,77.32 100,77.47 "/>
     <polygon id="_227" class="fil16" points="0,77.37 0,77.22 100,77.22 100,77.37 "/>
     <polygon id="_228" class="fil16" points="0,77.27 0,77.12 100,77.12 100,77.27 "/>
     <polygon id="_229" class="fil16" points="0,77.17 0,77.02 100,77.02 100,77.17 "/>
     <polygon id="_230" class="fil16" points="0,77.07 0,76.92 100,76.92 100,77.07 "/>
     <polygon id="_231" class="fil17" points="0,76.97 0,76.82 100,76.82 100,76.97 "/>
     <polygon id="_232" class="fil17" points="0,76.87 0,76.72 100,76.72 100,76.87 "/>
     <polygon id="_233" class="fil17" points="0,76.77 0,76.62 100,76.62 100,76.77 "/>
     <polygon id="_234" class="fil17" points="0,76.67 0,76.52 100,76.52 100,76.67 "/>
     <polygon id="_235" class="fil18" points="0,76.57 0,76.42 100,76.42 100,76.57 "/>
     <polygon id="_236" class="fil18" points="0,76.47 0,76.32 100,76.32 100,76.47 "/>
     <polygon id="_237" class="fil18" points="0,76.37 0,76.22 100,76.22 100,76.37 "/>
     <polygon id="_238" class="fil18" points="0,76.27 0,76.12 100,76.12 100,76.27 "/>
     <polygon id="_239" class="fil18" points="0,76.17 0,76.02 100,76.02 100,76.17 "/>
     <polygon id="_240" class="fil18" points="0,76.07 0,75.92 100,75.92 100,76.07 "/>
     <polygon id="_241" class="fil18" points="0,75.97 0,75.82 100,75.82 100,75.97 "/>
     <polygon id="_242" class="fil18" points="0,75.87 0,75.72 100,75.72 100,75.87 "/>
     <polygon id="_243" class="fil18" points="0,75.77 0,75.62 100,75.62 100,75.77 "/>
     <polygon id="_244" class="fil18" points="0,75.67 0,75.52 100,75.52 100,75.67 "/>
     <polygon id="_245" class="fil18" points="0,75.57 0,75.42 100,75.42 100,75.57 "/>
     <polygon id="_246" class="fil19" points="0,75.47 0,75.32 100,75.32 100,75.47 "/>
     <polygon id="_247" class="fil19" points="0,75.37 0,75.22 100,75.22 100,75.37 "/>
     <polygon id="_248" class="fil19" points="0,75.27 0,75.12 100,75.12 100,75.27 "/>
     <polygon id="_249" class="fil19" points="0,75.17 0,75.02 100,75.02 100,75.17 "/>
     <polygon id="_250" class="fil19" points="0,75.07 0,74.92 100,74.92 100,75.07 "/>
     <polygon id="_251" class="fil19" points="0,74.97 0,74.82 100,74.82 100,74.97 "/>
     <polygon id="_252" class="fil19" points="0,74.87 0,74.72 100,74.72 100,74.87 "/>
     <polygon id="_253" class="fil19" points="0,74.77 0,74.62 100,74.62 100,74.77 "/>
     <polygon id="_254" class="fil19" points="0,74.67 0,74.52 100,74.52 100,74.67 "/>
     <polygon id="_255" class="fil19" points="0,74.57 0,74.42 100,74.42 100,74.57 "/>
     <polygon id="_256" class="fil19" points="0,74.47 0,74.32 100,74.32 100,74.47 "/>
     <polygon id="_257" class="fil19" points="0,74.37 0,74.22 100,74.22 100,74.37 "/>
     <polygon id="_258" class="fil19" points="0,74.27 0,74.11 100,74.11 100,74.27 "/>
     <polygon id="_259" class="fil19" points="0,74.17 0,74.02 100,74.02 100,74.17 "/>
     <polygon id="_260" class="fil19" points="0,74.07 0,73.92 100,73.92 100,74.07 "/>
     <polygon id="_261" class="fil20" points="0,73.96 0,73.81 100,73.81 100,73.96 "/>
     <polygon id="_262" class="fil20" points="0,73.87 0,73.71 100,73.71 100,73.87 "/>
     <polygon id="_263" class="fil20" points="0,73.77 0,73.62 100,73.62 100,73.77 "/>
     <polygon id="_264" class="fil21" points="0,73.66 0,73.51 100,73.51 100,73.66 "/>
     <polygon id="_265" class="fil21" points="0,73.56 0,73.41 100,73.41 100,73.56 "/>
     <polygon id="_266" class="fil21" points="0,73.47 0,73.31 100,73.31 100,73.47 "/>
     <polygon id="_267" class="fil21" points="0,73.36 0,73.21 100,73.21 100,73.36 "/>
     <polygon id="_268" class="fil21" points="0,73.26 0,73.11 100,73.11 100,73.26 "/>
     <polygon id="_269" class="fil21" points="0,73.16 0,73.01 100,73.01 100,73.16 "/>
     <polygon id="_270" class="fil21" points="0,73.06 0,72.91 100,72.91 100,73.06 "/>
     <polygon id="_271" class="fil21" points="0,72.96 0,72.81 100,72.81 100,72.96 "/>
     <polygon id="_272" class="fil21" points="0,72.86 0,72.71 100,72.71 100,72.86 "/>
     <polygon id="_273" class="fil21" points="0,72.76 0,72.61 100,72.61 100,72.76 "/>
     <polygon id="_274" class="fil21" points="0,72.66 0,72.51 100,72.51 100,72.66 "/>
     <polygon id="_275" class="fil21" points="0,72.56 0,72.41 100,72.41 100,72.56 "/>
     <polygon id="_276" class="fil22" points="0,72.46 0,72.31 100,72.31 100,72.46 "/>
     <polygon id="_277" class="fil22" points="0,72.36 0,72.21 100,72.21 100,72.36 "/>
     <polygon id="_278" class="fil22" points="0,72.26 0,72.11 100,72.11 100,72.26 "/>
     <polygon id="_279" class="fil22" points="0,72.16 0,72.01 100,72.01 100,72.16 "/>
     <polygon id="_280" class="fil22" points="0,72.06 0,71.91 100,71.91 100,72.06 "/>
     <polygon id="_281" class="fil22" points="0,71.96 0,71.81 100,71.81 100,71.96 "/>
     <polygon id="_282" class="fil22" points="0,71.86 0,71.71 100,71.71 100,71.86 "/>
     <polygon id="_283" class="fil22" points="0,71.76 0,71.61 100,71.61 100,71.76 "/>
     <polygon id="_284" class="fil22" points="0,71.66 0,71.51 100,71.51 100,71.66 "/>
     <polygon id="_285" class="fil22" points="0,71.56 0,71.41 100,71.41 100,71.56 "/>
     <polygon id="_286" class="fil22" points="0,71.46 0,71.31 100,71.31 100,71.46 "/>
     <polygon id="_287" class="fil22" points="0,71.36 0,71.21 100,71.21 100,71.36 "/>
     <polygon id="_288" class="fil22" points="0,71.26 0,71.11 100,71.11 100,71.26 "/>
     <polygon id="_289" class="fil22" points="0,71.16 0,71.01 100,71.01 100,71.16 "/>
     <polygon id="_290" class="fil23" points="0,71.06 0,70.91 100,70.91 100,71.06 "/>
     <polygon id="_291" class="fil23" points="0,70.96 0,70.81 100,70.81 100,70.96 "/>
     <polygon id="_292" class="fil24" points="0,70.86 0,70.71 100,70.71 100,70.86 "/>
     <polygon id="_293" class="fil24" points="0,70.76 0,70.61 100,70.61 100,70.76 "/>
     <polygon id="_294" class="fil24" points="0,70.66 0,70.51 100,70.51 100,70.66 "/>
     <polygon id="_295" class="fil24" points="0,70.56 0,70.41 100,70.41 100,70.56 "/>
     <polygon id="_296" class="fil24" points="0,70.46 0,70.31 100,70.31 100,70.46 "/>
     <polygon id="_297" class="fil24" points="0,70.36 0,70.21 100,70.21 100,70.36 "/>
     <polygon id="_298" class="fil24" points="0,70.26 0,70.11 100,70.11 100,70.26 "/>
     <polygon id="_299" class="fil24" points="0,70.16 0,70.01 100,70.01 100,70.16 "/>
     <polygon id="_300" class="fil24" points="0,70.06 0,69.91 100,69.91 100,70.06 "/>
     <polygon id="_301" class="fil24" points="0,69.96 0,69.81 100,69.81 100,69.96 "/>
     <polygon id="_302" class="fil24" points="0,69.86 0,69.71 100,69.71 100,69.86 "/>
     <polygon id="_303" class="fil24" points="0,69.76 0,69.61 100,69.61 100,69.76 "/>
     <polygon id="_304" class="fil25" points="0,69.66 0,69.51 100,69.51 100,69.66 "/>
     <polygon id="_305" class="fil25" points="0,69.56 0,69.41 100,69.41 100,69.56 "/>
     <polygon id="_306" class="fil25" points="0,69.46 0,69.31 100,69.31 100,69.46 "/>
     <polygon id="_307" class="fil25" points="0,69.36 0,69.21 100,69.21 100,69.36 "/>
     <polygon id="_308" class="fil25" points="0,69.26 0,69.11 100,69.11 100,69.26 "/>
     <polygon id="_309" class="fil25" points="0,69.16 0,69.01 100,69.01 100,69.16 "/>
     <polygon id="_310" class="fil25" points="0,69.06 0,68.91 100,68.91 100,69.06 "/>
     <polygon id="_311" class="fil25" points="0,68.96 0,68.81 100,68.81 100,68.96 "/>
     <polygon id="_312" class="fil25" points="0,68.86 0,68.71 100,68.71 100,68.86 "/>
     <polygon id="_313" class="fil25" points="0,68.76 0,68.61 100,68.61 100,68.76 "/>
     <polygon id="_314" class="fil25" points="0,68.66 0,68.51 100,68.51 100,68.66 "/>
     <polygon id="_315" class="fil25" points="0,68.56 0,68.41 100,68.41 100,68.56 "/>
     <polygon id="_316" class="fil25" points="0,68.46 0,68.31 100,68.31 100,68.46 "/>
     <polygon id="_317" class="fil25" points="0,68.36 0,68.21 100,68.21 100,68.36 "/>
     <polygon id="_318" class="fil26" points="0,68.26 0,68.11 100,68.11 100,68.26 "/>
     <polygon id="_319" class="fil26" points="0,68.16 0,68.01 100,68.01 100,68.16 "/>
     <polygon id="_320" class="fil27" points="0,68.06 0,67.91 100,67.91 100,68.06 "/>
     <polygon id="_321" class="fil27" points="0,67.96 0,67.81 100,67.81 100,67.96 "/>
     <polygon id="_322" class="fil27" points="0,67.86 0,67.71 100,67.71 100,67.86 "/>
     <polygon id="_323" class="fil27" points="0,67.76 0,67.61 100,67.61 100,67.76 "/>
     <polygon id="_324" class="fil27" points="0,67.66 0,67.51 100,67.51 100,67.66 "/>
     <polygon id="_325" class="fil27" points="0,67.56 0,67.41 100,67.41 100,67.56 "/>
     <polygon id="_326" class="fil27" points="0,67.46 0,67.31 100,67.31 100,67.46 "/>
     <polygon id="_327" class="fil27" points="0,67.36 0,67.21 100,67.21 100,67.36 "/>
     <polygon id="_328" class="fil27" points="0,67.26 0,67.11 100,67.11 100,67.26 "/>
     <polygon id="_329" class="fil27" points="0,67.16 0,67.01 100,67.01 100,67.16 "/>
     <polygon id="_330" class="fil27" points="0,67.06 0,66.91 100,66.91 100,67.06 "/>
     <polygon id="_331" class="fil27" points="0,66.96 0,66.81 100,66.81 100,66.96 "/>
     <polygon id="_332" class="fil28" points="0,66.86 0,66.71 100,66.71 100,66.86 "/>
     <polygon id="_333" class="fil28" points="0,66.76 0,66.61 100,66.61 100,66.76 "/>
     <polygon id="_334" class="fil28" points="0,66.66 0,66.51 100,66.51 100,66.66 "/>
     <polygon id="_335" class="fil28" points="0,66.56 0,66.41 100,66.41 100,66.56 "/>
     <polygon id="_336" class="fil28" points="0,66.46 0,66.31 100,66.31 100,66.46 "/>
     <polygon id="_337" class="fil28" points="0,66.36 0,66.21 100,66.21 100,66.36 "/>
     <polygon id="_338" class="fil28" points="0,66.26 0,66.11 100,66.11 100,66.26 "/>
     <polygon id="_339" class="fil28" points="0,66.16 0,66.01 100,66.01 100,66.16 "/>
     <polygon id="_340" class="fil28" points="0,66.06 0,65.91 100,65.91 100,66.06 "/>
     <polygon id="_341" class="fil28" points="0,65.96 0,65.81 100,65.81 100,65.96 "/>
     <polygon id="_342" class="fil28" points="0,65.86 0,65.71 100,65.71 100,65.86 "/>
     <polygon id="_343" class="fil28" points="0,65.76 0,65.61 100,65.61 100,65.76 "/>
     <polygon id="_344" class="fil28" points="0,65.66 0,65.51 100,65.51 100,65.66 "/>
     <polygon id="_345" class="fil28" points="0,65.56 0,65.41 100,65.41 100,65.56 "/>
     <polygon id="_346" class="fil29" points="0,65.46 0,65.31 100,65.31 100,65.46 "/>
     <polygon id="_347" class="fil30" points="0,65.36 0,65.21 100,65.21 100,65.36 "/>
     <polygon id="_348" class="fil30" points="0,65.26 0,65.11 100,65.11 100,65.26 "/>
     <polygon id="_349" class="fil30" points="0,65.16 0,65.01 100,65.01 100,65.16 "/>
     <polygon id="_350" class="fil30" points="0,65.06 0,64.91 100,64.91 100,65.06 "/>
     <polygon id="_351" class="fil30" points="0,64.96 0,64.81 100,64.81 100,64.96 "/>
     <polygon id="_352" class="fil30" points="0,64.86 0,64.71 100,64.71 100,64.86 "/>
     <polygon id="_353" class="fil30" points="0,64.76 0,64.61 100,64.61 100,64.76 "/>
     <polygon id="_354" class="fil30" points="0,64.66 0,64.51 100,64.51 100,64.66 "/>
     <polygon id="_355" class="fil30" points="0,64.56 0,64.4 100,64.4 100,64.56 "/>
     <polygon id="_356" class="fil30" points="0,64.46 0,64.31 100,64.31 100,64.46 "/>
     <polygon id="_357" class="fil30" points="0,64.36 0,64.21 100,64.21 100,64.36 "/>
     <polygon id="_358" class="fil30" points="0,64.25 0,64.1 100,64.1 100,64.25 "/>
     <polygon id="_359" class="fil30" points="0,64.16 0,64 100,64 100,64.16 "/>
     <polygon id="_360" class="fil31" points="0,64.06 0,63.91 100,63.91 100,64.06 "/>
     <polygon id="_361" class="fil31" points="0,63.95 0,63.8 100,63.8 100,63.95 "/>
     <polygon id="_362" class="fil31" points="0,63.85 0,63.7 100,63.7 100,63.85 "/>
     <polygon id="_363" class="fil31" points="0,63.76 0,63.6 100,63.6 100,63.76 "/>
     <polygon id="_364" class="fil31" points="0,63.65 0,63.5 100,63.5 100,63.65 "/>
     <polygon id="_365" class="fil31" points="0,63.55 0,63.4 100,63.4 100,63.55 "/>
     <polygon id="_366" class="fil31" points="0,63.45 0,63.3 100,63.3 100,63.45 "/>
     <polygon id="_367" class="fil31" points="0,63.35 0,63.2 100,63.2 100,63.35 "/>
     <polygon id="_368" class="fil31" points="0,63.25 0,63.1 100,63.1 100,63.25 "/>
     <polygon id="_369" class="fil31" points="0,63.15 0,63 100,63 100,63.15 "/>
     <polygon id="_370" class="fil31" points="0,63.05 0,62.9 100,62.9 100,63.05 "/>
     <polygon id="_371" class="fil31" points="0,62.95 0,62.8 100,62.8 100,62.95 "/>
     <polygon id="_372" class="fil31" points="0,62.85 0,62.7 100,62.7 100,62.85 "/>
     <polygon id="_373" class="fil32" points="0,62.75 0,62.6 100,62.6 100,62.75 "/>
     <polygon id="_374" class="fil33" points="0,62.65 0,62.5 100,62.5 100,62.65 "/>
     <polygon id="_375" class="fil33" points="0,62.55 0,62.4 100,62.4 100,62.55 "/>
     <polygon id="_376" class="fil33" points="0,62.45 0,62.3 100,62.3 100,62.45 "/>
     <polygon id="_377" class="fil33" points="0,62.35 0,62.2 100,62.2 100,62.35 "/>
     <polygon id="_378" class="fil33" points="0,62.25 0,62.1 100,62.1 100,62.25 "/>
     <polygon id="_379" class="fil33" points="0,62.15 0,62 100,62 100,62.15 "/>
     <polygon id="_380" class="fil33" points="0,62.05 0,61.9 100,61.9 100,62.05 "/>
     <polygon id="_381" class="fil33" points="0,61.95 0,61.8 100,61.8 100,61.95 "/>
     <polygon id="_382" class="fil33" points="0,61.85 0,61.7 100,61.7 100,61.85 "/>
     <polygon id="_383" class="fil33" points="0,61.75 0,61.6 100,61.6 100,61.75 "/>
     <polygon id="_384" class="fil33" points="0,61.65 0,61.5 100,61.5 100,61.65 "/>
     <polygon id="_385" class="fil33" points="0,61.55 0,61.4 100,61.4 100,61.55 "/>
     <polygon id="_386" class="fil33" points="0,61.45 0,61.3 100,61.3 100,61.45 "/>
     <polygon id="_387" class="fil34" points="0,61.35 0,61.2 100,61.2 100,61.35 "/>
     <polygon id="_388" class="fil34" points="0,61.25 0,61.1 100,61.1 100,61.25 "/>
     <polygon id="_389" class="fil34" points="0,61.15 0,61 100,61 100,61.15 "/>
     <polygon id="_390" class="fil34" points="0,61.05 0,60.9 100,60.9 100,61.05 "/>
     <polygon id="_391" class="fil34" points="0,60.95 0,60.8 100,60.8 100,60.95 "/>
     <polygon id="_392" class="fil34" points="0,60.85 0,60.7 100,60.7 100,60.85 "/>
     <polygon id="_393" class="fil34" points="0,60.75 0,60.6 100,60.6 100,60.75 "/>
     <polygon id="_394" class="fil34" points="0,60.65 0,60.5 100,60.5 100,60.65 "/>
     <polygon id="_395" class="fil34" points="0,60.55 0,60.4 100,60.4 100,60.55 "/>
     <polygon id="_396" class="fil34" points="0,60.45 0,60.3 100,60.3 100,60.45 "/>
     <polygon id="_397" class="fil34" points="0,60.35 0,60.2 100,60.2 100,60.35 "/>
     <polygon id="_398" class="fil34" points="0,60.25 0,60.1 100,60.1 100,60.25 "/>
     <polygon id="_399" class="fil34" points="0,60.15 0,60 100,60 100,60.15 "/>
     <polygon id="_400" class="fil35" points="0,60.05 0,59.9 100,59.9 100,60.05 "/>
     <polygon id="_401" class="fil35" points="0,59.95 0,59.8 100,59.8 100,59.95 "/>
     <polygon id="_402" class="fil35" points="0,59.85 0,59.7 100,59.7 100,59.85 "/>
     <polygon id="_403" class="fil35" points="0,59.75 0,59.6 100,59.6 100,59.75 "/>
     <polygon id="_404" class="fil35" points="0,59.65 0,59.5 100,59.5 100,59.65 "/>
     <polygon id="_405" class="fil35" points="0,59.55 0,59.4 100,59.4 100,59.55 "/>
     <polygon id="_406" class="fil35" points="0,59.45 0,59.3 100,59.3 100,59.45 "/>
     <polygon id="_407" class="fil35" points="0,59.35 0,59.2 100,59.2 100,59.35 "/>
     <polygon id="_408" class="fil35" points="0,59.25 0,59.1 100,59.1 100,59.25 "/>
     <polygon id="_409" class="fil35" points="0,59.15 0,59 100,59 100,59.15 "/>
     <polygon id="_410" class="fil35" points="0,59.05 0,58.9 100,58.9 100,59.05 "/>
     <polygon id="_411" class="fil35" points="0,58.95 0,58.8 100,58.8 100,58.95 "/>
     <polygon id="_412" class="fil35" points="0,58.85 0,58.7 100,58.7 100,58.85 "/>
     <polygon id="_413" class="fil35" points="0,58.75 0,58.6 100,58.6 100,58.75 "/>
     <polygon id="_414" class="fil36" points="0,58.65 0,58.5 100,58.5 100,58.65 "/>
     <polygon id="_415" class="fil36" points="0,58.55 0,58.4 100,58.4 100,58.55 "/>
     <polygon id="_416" class="fil36" points="0,58.45 0,58.3 100,58.3 100,58.45 "/>
     <polygon id="_417" class="fil36" points="0,58.35 0,58.2 100,58.2 100,58.35 "/>
     <polygon id="_418" class="fil36" points="0,58.25 0,58.1 100,58.1 100,58.25 "/>
     <polygon id="_419" class="fil36" points="0,58.15 0,58 100,58 100,58.15 "/>
     <polygon id="_420" class="fil36" points="0,58.05 0,57.9 100,57.9 100,58.05 "/>
     <polygon id="_421" class="fil36" points="0,57.95 0,57.8 100,57.8 100,57.95 "/>
     <polygon id="_422" class="fil36" points="0,57.85 0,57.7 100,57.7 100,57.85 "/>
     <polygon id="_423" class="fil36" points="0,57.75 0,57.6 100,57.6 100,57.75 "/>
     <polygon id="_424" class="fil36" points="0,57.65 0,57.5 100,57.5 100,57.65 "/>
     <polygon id="_425" class="fil36" points="0,57.55 0,57.4 100,57.4 100,57.55 "/>
     <polygon id="_426" class="fil36" points="0,57.45 0,57.3 100,57.3 100,57.45 "/>
     <polygon id="_427" class="fil37" points="0,57.35 0,57.2 100,57.2 100,57.35 "/>
     <polygon id="_428" class="fil38" points="0,57.25 0,57.1 100,57.1 100,57.25 "/>
     <polygon id="_429" class="fil38" points="0,57.15 0,57 100,57 100,57.15 "/>
     <polygon id="_430" class="fil38" points="0,57.05 0,56.9 100,56.9 100,57.05 "/>
     <polygon id="_431" class="fil38" points="0,56.95 0,56.8 100,56.8 100,56.95 "/>
     <polygon id="_432" class="fil38" points="0,56.85 0,56.7 100,56.7 100,56.85 "/>
     <polygon id="_433" class="fil38" points="0,56.75 0,56.6 100,56.6 100,56.75 "/>
     <polygon id="_434" class="fil38" points="0,56.65 0,56.5 100,56.5 100,56.65 "/>
     <polygon id="_435" class="fil38" points="0,56.55 0,56.4 100,56.4 100,56.55 "/>
     <polygon id="_436" class="fil38" points="0,56.45 0,56.3 100,56.3 100,56.45 "/>
     <polygon id="_437" class="fil38" points="0,56.35 0,56.2 100,56.2 100,56.35 "/>
     <polygon id="_438" class="fil38" points="0,56.25 0,56.1 100,56.1 100,56.25 "/>
     <polygon id="_439" class="fil38" points="0,56.15 0,56 100,56 100,56.15 "/>
     <polygon id="_440" class="fil38" points="0,56.05 0,55.9 100,55.9 100,56.05 "/>
     <polygon id="_441" class="fil39" points="0,55.95 0,55.8 100,55.8 100,55.95 "/>
     <polygon id="_442" class="fil39" points="0,55.85 0,55.7 100,55.7 100,55.85 "/>
     <polygon id="_443" class="fil39" points="0,55.75 0,55.6 100,55.6 100,55.75 "/>
     <polygon id="_444" class="fil39" points="0,55.65 0,55.5 100,55.5 100,55.65 "/>
     <polygon id="_445" class="fil39" points="0,55.55 0,55.4 100,55.4 100,55.55 "/>
     <polygon id="_446" class="fil39" points="0,55.45 0,55.3 100,55.3 100,55.45 "/>
     <polygon id="_447" class="fil39" points="0,55.35 0,55.2 100,55.2 100,55.35 "/>
     <polygon id="_448" class="fil39" points="0,55.25 0,55.1 100,55.1 100,55.25 "/>
     <polygon id="_449" class="fil39" points="0,55.15 0,55 100,55 100,55.15 "/>
     <polygon id="_450" class="fil39" points="0,55.05 0,54.9 100,54.9 100,55.05 "/>
     <polygon id="_451" class="fil39" points="0,54.95 0,54.8 100,54.8 100,54.95 "/>
     <polygon id="_452" class="fil39" points="0,54.85 0,54.7 100,54.7 100,54.85 "/>
     <polygon id="_453" class="fil39" points="0,54.75 0,54.6 100,54.6 100,54.75 "/>
     <polygon id="_454" class="fil40" points="0,54.65 0,54.5 100,54.5 100,54.65 "/>
     <polygon id="_455" class="fil41" points="0,54.54 0,54.39 100,54.39 100,54.54 "/>
     <polygon id="_456" class="fil41" points="0,54.45 0,54.3 100,54.3 100,54.45 "/>
     <polygon id="_457" class="fil41" points="0,54.35 0,54.2 100,54.2 100,54.35 "/>
     <polygon id="_458" class="fil41" points="0,54.24 0,54.09 100,54.09 100,54.24 "/>
     <polygon id="_459" class="fil41" points="0,54.14 0,53.99 100,53.99 100,54.14 "/>
     <polygon id="_460" class="fil41" points="0,54.05 0,53.89 100,53.89 100,54.05 "/>
     <polygon id="_461" class="fil41" points="0,53.94 0,53.79 100,53.79 100,53.94 "/>
     <polygon id="_462" class="fil41" points="0,53.84 0,53.69 100,53.69 100,53.84 "/>
     <polygon id="_463" class="fil41" points="0,53.74 0,53.59 100,53.59 100,53.74 "/>
     <polygon id="_464" class="fil41" points="0,53.64 0,53.49 100,53.49 100,53.64 "/>
     <polygon id="_465" class="fil41" points="0,53.54 0,53.39 100,53.39 100,53.54 "/>
     <polygon id="_466" class="fil41" points="0,53.44 0,53.29 100,53.29 100,53.44 "/>
     <polygon id="_467" class="fil41" points="0,53.34 0,53.19 100,53.19 100,53.34 "/>
     <polygon id="_468" class="fil41" points="0,53.24 0,53.09 100,53.09 100,53.24 "/>
     <polygon id="_469" class="fil42" points="0,53.14 0,52.99 100,52.99 100,53.14 "/>
     <polygon id="_470" class="fil42" points="0,53.04 0,52.89 100,52.89 100,53.04 "/>
     <polygon id="_471" class="fil42" points="0,52.94 0,52.79 100,52.79 100,52.94 "/>
     <polygon id="_472" class="fil42" points="0,52.84 0,52.69 100,52.69 100,52.84 "/>
     <polygon id="_473" class="fil42" points="0,52.74 0,52.59 100,52.59 100,52.74 "/>
     <polygon id="_474" class="fil42" points="0,52.64 0,52.49 100,52.49 100,52.64 "/>
     <polygon id="_475" class="fil42" points="0,52.54 0,52.39 100,52.39 100,52.54 "/>
     <polygon id="_476" class="fil42" points="0,52.44 0,52.29 100,52.29 100,52.44 "/>
     <polygon id="_477" class="fil42" points="0,52.34 0,52.19 100,52.19 100,52.34 "/>
     <polygon id="_478" class="fil42" points="0,52.24 0,52.09 100,52.09 100,52.24 "/>
     <polygon id="_479" class="fil42" points="0,52.14 0,51.99 100,51.99 100,52.14 "/>
     <polygon id="_480" class="fil42" points="0,52.04 0,51.89 100,51.89 100,52.04 "/>
     <polygon id="_481" class="fil43" points="0,51.94 0,51.79 100,51.79 100,51.94 "/>
     <polygon id="_482" class="fil43" points="0,51.84 0,51.69 100,51.69 100,51.84 "/>
     <polygon id="_483" class="fil44" points="0,51.74 0,51.59 100,51.59 100,51.74 "/>
     <polygon id="_484" class="fil44" points="0,51.64 0,51.49 100,51.49 100,51.64 "/>
     <polygon id="_485" class="fil44" points="0,51.54 0,51.39 100,51.39 100,51.54 "/>
     <polygon id="_486" class="fil44" points="0,51.44 0,51.29 100,51.29 100,51.44 "/>
     <polygon id="_487" class="fil44" points="0,51.34 0,51.19 100,51.19 100,51.34 "/>
     <polygon id="_488" class="fil44" points="0,51.24 0,51.09 100,51.09 100,51.24 "/>
     <polygon id="_489" class="fil44" points="0,51.14 0,50.99 100,50.99 100,51.14 "/>
     <polygon id="_490" class="fil44" points="0,51.04 0,50.89 100,50.89 100,51.04 "/>
     <polygon id="_491" class="fil44" points="0,50.94 0,50.79 100,50.79 100,50.94 "/>
     <polygon id="_492" class="fil44" points="0,50.84 0,50.69 100,50.69 100,50.84 "/>
     <polygon id="_493" class="fil44" points="0,50.74 0,50.59 100,50.59 100,50.74 "/>
     <polygon id="_494" class="fil44" points="0,50.64 0,50.49 100,50.49 100,50.64 "/>
     <polygon id="_495" class="fil44" points="0,50.54 0,50.39 100,50.39 100,50.54 "/>
     <polygon id="_496" class="fil44" points="0,50.44 0,50.29 100,50.29 100,50.44 "/>
     <polygon id="_497" class="fil45" points="0,50.34 0,50.19 100,50.19 100,50.34 "/>
     <polygon id="_498" class="fil45" points="0,50.24 0,50.09 100,50.09 100,50.24 "/>
     <polygon id="_499" class="fil45" points="0,50.14 0,49.99 100,49.99 100,50.14 "/>
     <polygon id="_500" class="fil45" points="0,50.04 0,49.89 100,49.89 100,50.04 "/>
     <polygon id="_501" class="fil45" points="0,49.94 0,49.79 100,49.79 100,49.94 "/>
     <polygon id="_502" class="fil45" points="0,49.84 0,49.69 100,49.69 100,49.84 "/>
     <polygon id="_503" class="fil45" points="0,49.74 0,49.59 100,49.59 100,49.74 "/>
     <polygon id="_504" class="fil45" points="0,49.64 0,49.49 100,49.49 100,49.64 "/>
     <polygon id="_505" class="fil45" points="0,49.54 0,49.39 100,49.39 100,49.54 "/>
     <polygon id="_506" class="fil45" points="0,49.44 0,49.29 100,49.29 100,49.44 "/>
     <polygon id="_507" class="fil45" points="0,49.34 0,49.19 100,49.19 100,49.34 "/>
     <polygon id="_508" class="fil45" points="0,49.24 0,49.09 100,49.09 100,49.24 "/>
     <polygon id="_509" class="fil46" points="0,49.14 0,48.99 100,48.99 100,49.14 "/>
     <polygon id="_510" class="fil46" points="0,49.04 0,48.89 100,48.89 100,49.04 "/>
     <polygon id="_511" class="fil47" points="0,48.94 0,48.79 100,48.79 100,48.94 "/>
     <polygon id="_512" class="fil47" points="0,48.84 0,48.69 100,48.69 100,48.84 "/>
     <polygon id="_513" class="fil47" points="0,48.74 0,48.59 100,48.59 100,48.74 "/>
     <polygon id="_514" class="fil47" points="0,48.64 0,48.49 100,48.49 100,48.64 "/>
     <polygon id="_515" class="fil47" points="0,48.54 0,48.39 100,48.39 100,48.54 "/>
     <polygon id="_516" class="fil47" points="0,48.44 0,48.29 100,48.29 100,48.44 "/>
     <polygon id="_517" class="fil47" points="0,48.34 0,48.19 100,48.19 100,48.34 "/>
     <polygon id="_518" class="fil47" points="0,48.24 0,48.09 100,48.09 100,48.24 "/>
     <polygon id="_519" class="fil47" points="0,48.14 0,47.99 100,47.99 100,48.14 "/>
     <polygon id="_520" class="fil47" points="0,48.04 0,47.89 100,47.89 100,48.04 "/>
     <polygon id="_521" class="fil47" points="0,47.94 0,47.79 100,47.79 100,47.94 "/>
     <polygon id="_522" class="fil47" points="0,47.84 0,47.69 100,47.69 100,47.84 "/>
     <polygon id="_523" class="fil47" points="0,47.74 0,47.59 100,47.59 100,47.74 "/>
     <polygon id="_524" class="fil47" points="0,47.64 0,47.49 100,47.49 100,47.64 "/>
     <polygon id="_525" class="fil48" points="0,47.54 0,47.39 100,47.39 100,47.54 "/>
     <polygon id="_526" class="fil48" points="0,47.44 0,47.29 100,47.29 100,47.44 "/>
     <polygon id="_527" class="fil48" points="0,47.34 0,47.19 100,47.19 100,47.34 "/>
     <polygon id="_528" class="fil48" points="0,47.24 0,47.09 100,47.09 100,47.24 "/>
     <polygon id="_529" class="fil48" points="0,47.14 0,46.99 100,46.99 100,47.14 "/>
     <polygon id="_530" class="fil48" points="0,47.04 0,46.89 100,46.89 100,47.04 "/>
     <polygon id="_531" class="fil48" points="0,46.94 0,46.79 100,46.79 100,46.94 "/>
     <polygon id="_532" class="fil48" points="0,46.84 0,46.69 100,46.69 100,46.84 "/>
     <polygon id="_533" class="fil48" points="0,46.74 0,46.59 100,46.59 100,46.74 "/>
     <polygon id="_534" class="fil48" points="0,46.64 0,46.49 100,46.49 100,46.64 "/>
     <polygon id="_535" class="fil48" points="0,46.54 0,46.39 100,46.39 100,46.54 "/>
     <polygon id="_536" class="fil48" points="0,46.44 0,46.29 100,46.29 100,46.44 "/>
     <polygon id="_537" class="fil49" points="0,46.34 0,46.19 100,46.19 100,46.34 "/>
     <polygon id="_538" class="fil49" points="0,46.24 0,46.09 100,46.09 100,46.24 "/>
     <polygon id="_539" class="fil49" points="0,46.14 0,45.99 100,45.99 100,46.14 "/>
     <polygon id="_540" class="fil50" points="0,46.04 0,45.89 100,45.89 100,46.04 "/>
     <polygon id="_541" class="fil50" points="0,45.94 0,45.79 100,45.79 100,45.94 "/>
     <polygon id="_542" class="fil50" points="0,45.84 0,45.69 100,45.69 100,45.84 "/>
     <polygon id="_543" class="fil50" points="0,45.74 0,45.59 100,45.59 100,45.74 "/>
     <polygon id="_544" class="fil50" points="0,45.64 0,45.49 100,45.49 100,45.64 "/>
     <polygon id="_545" class="fil50" points="0,45.54 0,45.39 100,45.39 100,45.54 "/>
     <polygon id="_546" class="fil50" points="0,45.44 0,45.29 100,45.29 100,45.44 "/>
     <polygon id="_547" class="fil50" points="0,45.34 0,45.19 100,45.19 100,45.34 "/>
     <polygon id="_548" class="fil50" points="0,45.24 0,45.09 100,45.09 100,45.24 "/>
     <polygon id="_549" class="fil50" points="0,45.14 0,44.99 100,44.99 100,45.14 "/>
     <polygon id="_550" class="fil50" points="0,45.04 0,44.89 100,44.89 100,45.04 "/>
     <polygon id="_551" class="fil50" points="0,44.94 0,44.79 100,44.79 100,44.94 "/>
     <polygon id="_552" class="fil50" points="0,44.83 0,44.68 100,44.68 100,44.83 "/>
     <polygon id="_553" class="fil50" points="0,44.74 0,44.59 100,44.59 100,44.74 "/>
     <polygon id="_554" class="fil50" points="0,44.64 0,44.49 100,44.49 100,44.64 "/>
     <polygon id="_555" class="fil51" points="0,44.53 0,44.38 100,44.38 100,44.53 "/>
     <polygon id="_556" class="fil51" points="0,44.43 0,44.28 100,44.28 100,44.43 "/>
     <polygon id="_557" class="fil51" points="0,44.34 0,44.19 100,44.19 100,44.34 "/>
     <polygon id="_558" class="fil51" points="0,44.23 0,44.08 100,44.08 100,44.23 "/>
     <polygon id="_559" class="fil51" points="0,44.13 0,43.98 100,43.98 100,44.13 "/>
     <polygon id="_560" class="fil51" points="0,44.03 0,43.88 100,43.88 100,44.03 "/>
     <polygon id="_561" class="fil51" points="0,43.93 0,43.78 100,43.78 100,43.93 "/>
     <polygon id="_562" class="fil51" points="0,43.83 0,43.68 100,43.68 100,43.83 "/>
     <polygon id="_563" class="fil51" points="0,43.73 0,43.58 100,43.58 100,43.73 "/>
     <polygon id="_564" class="fil51" points="0,43.63 0,43.48 100,43.48 100,43.63 "/>
     <polygon id="_565" class="fil51" points="0,43.53 0,43.38 100,43.38 100,43.53 "/>
     <polygon id="_566" class="fil52" points="0,43.43 0,43.28 100,43.28 100,43.43 "/>
     <polygon id="_567" class="fil52" points="0,43.33 0,43.18 100,43.18 100,43.33 "/>
     <polygon id="_568" class="fil52" points="0,43.23 0,43.08 100,43.08 100,43.23 "/>
     <polygon id="_569" class="fil52" points="0,43.13 0,42.98 100,42.98 100,43.13 "/>
     <polygon id="_570" class="fil53" points="0,43.03 0,42.88 100,42.88 100,43.03 "/>
     <polygon id="_571" class="fil53" points="0,42.93 0,42.78 100,42.78 100,42.93 "/>
     <polygon id="_572" class="fil53" points="0,42.83 0,42.68 100,42.68 100,42.83 "/>
     <polygon id="_573" class="fil53" points="0,42.73 0,42.58 100,42.58 100,42.73 "/>
     <polygon id="_574" class="fil53" points="0,42.63 0,42.48 100,42.48 100,42.63 "/>
     <polygon id="_575" class="fil53" points="0,42.53 0,42.38 100,42.38 100,42.53 "/>
     <polygon id="_576" class="fil53" points="0,42.43 0,42.28 100,42.28 100,42.43 "/>
     <polygon id="_577" class="fil53" points="0,42.33 0,42.18 100,42.18 100,42.33 "/>
     <polygon id="_578" class="fil53" points="0,42.23 0,42.08 100,42.08 100,42.23 "/>
     <polygon id="_579" class="fil53" points="0,42.13 0,41.98 100,41.98 100,42.13 "/>
     <polygon id="_580" class="fil53" points="0,42.03 0,41.88 100,41.88 100,42.03 "/>
     <polygon id="_581" class="fil53" points="0,41.93 0,41.78 100,41.78 100,41.93 "/>
     <polygon id="_582" class="fil53" points="0,41.83 0,41.68 100,41.68 100,41.83 "/>
     <polygon id="_583" class="fil53" points="0,41.73 0,41.58 100,41.58 100,41.73 "/>
     <polygon id="_584" class="fil53" points="0,41.63 0,41.48 100,41.48 100,41.63 "/>
     <polygon id="_585" class="fil54" points="0,41.53 0,41.38 100,41.38 100,41.53 "/>
     <polygon id="_586" class="fil54" points="0,41.43 0,41.28 100,41.28 100,41.43 "/>
     <polygon id="_587" class="fil54" points="0,41.33 0,41.18 100,41.18 100,41.33 "/>
     <polygon id="_588" class="fil54" points="0,41.23 0,41.08 100,41.08 100,41.23 "/>
     <polygon id="_589" class="fil54" points="0,41.13 0,40.98 100,40.98 100,41.13 "/>
     <polygon id="_590" class="fil54" points="0,41.03 0,40.88 100,40.88 100,41.03 "/>
     <polygon id="_591" class="fil54" points="0,40.93 0,40.78 100,40.78 100,40.93 "/>
     <polygon id="_592" class="fil54" points="0,40.83 0,40.68 100,40.68 100,40.83 "/>
     <polygon id="_593" class="fil54" points="0,40.73 0,40.58 100,40.58 100,40.73 "/>
     <polygon id="_594" class="fil54" points="0,40.63 0,40.48 100,40.48 100,40.63 "/>
     <polygon id="_595" class="fil54" points="0,40.53 0,40.38 100,40.38 100,40.53 "/>
     <polygon id="_596" class="fil54" points="0,40.43 0,40.28 100,40.28 100,40.43 "/>
     <polygon id="_597" class="fil55" points="0,40.33 0,40.18 100,40.18 100,40.33 "/>
     <polygon id="_598" class="fil55" points="0,40.23 0,40.08 100,40.08 100,40.23 "/>
     <polygon id="_599" class="fil55" points="0,40.13 0,39.98 100,39.98 100,40.13 "/>
     <polygon id="_600" class="fil55" points="0,40.03 0,39.88 100,39.88 100,40.03 "/>
     <polygon id="_601" class="fil56" points="0,39.93 0,39.78 100,39.78 100,39.93 "/>
     <polygon id="_602" class="fil56" points="0,39.83 0,39.68 100,39.68 100,39.83 "/>
     <polygon id="_603" class="fil56" points="0,39.73 0,39.58 100,39.58 100,39.73 "/>
     <polygon id="_604" class="fil56" points="0,39.63 0,39.48 100,39.48 100,39.63 "/>
     <polygon id="_605" class="fil56" points="0,39.53 0,39.38 100,39.38 100,39.53 "/>
     <polygon id="_606" class="fil56" points="0,39.43 0,39.28 100,39.28 100,39.43 "/>
     <polygon id="_607" class="fil56" points="0,39.33 0,39.18 100,39.18 100,39.33 "/>
     <polygon id="_608" class="fil56" points="0,39.23 0,39.08 100,39.08 100,39.23 "/>
     <polygon id="_609" class="fil56" points="0,39.13 0,38.98 100,38.98 100,39.13 "/>
     <polygon id="_610" class="fil56" points="0,39.03 0,38.88 100,38.88 100,39.03 "/>
     <polygon id="_611" class="fil56" points="0,38.93 0,38.78 100,38.78 100,38.93 "/>
     <polygon id="_612" class="fil56" points="0,38.83 0,38.68 100,38.68 100,38.83 "/>
     <polygon id="_613" class="fil56" points="0,38.73 0,38.58 100,38.58 100,38.73 "/>
     <polygon id="_614" class="fil56" points="0,38.63 0,38.48 100,38.48 100,38.63 "/>
     <polygon id="_615" class="fil56" points="0,38.53 0,38.38 100,38.38 100,38.53 "/>
     <polygon id="_616" class="fil56" points="0,38.43 0,38.28 100,38.28 100,38.43 "/>
     <polygon id="_617" class="fil56" points="0,38.33 0,38.18 100,38.18 100,38.33 "/>
     <polygon id="_618" class="fil57" points="0,38.23 0,38.08 100,38.08 100,38.23 "/>
     <polygon id="_619" class="fil57" points="0,38.13 0,37.98 100,37.98 100,38.13 "/>
     <polygon id="_620" class="fil57" points="0,38.03 0,37.88 100,37.88 100,38.03 "/>
     <polygon id="_621" class="fil57" points="0,37.93 0,37.78 100,37.78 100,37.93 "/>
     <polygon id="_622" class="fil57" points="0,37.83 0,37.68 100,37.68 100,37.83 "/>
     <polygon id="_623" class="fil57" points="0,37.73 0,37.58 100,37.58 100,37.73 "/>
     <polygon id="_624" class="fil57" points="0,37.63 0,37.48 100,37.48 100,37.63 "/>
     <polygon id="_625" class="fil57" points="0,37.53 0,37.38 100,37.38 100,37.53 "/>
     <polygon id="_626" class="fil57" points="0,37.43 0,37.28 100,37.28 100,37.43 "/>
     <polygon id="_627" class="fil57" points="0,37.33 0,37.18 100,37.18 100,37.33 "/>
     <polygon id="_628" class="fil57" points="0,37.23 0,37.08 100,37.08 100,37.23 "/>
     <polygon id="_629" class="fil58" points="0,37.13 0,36.98 100,36.98 100,37.13 "/>
     <polygon id="_630" class="fil58" points="0,37.03 0,36.88 100,36.88 100,37.03 "/>
     <polygon id="_631" class="fil58" points="0,36.93 0,36.78 100,36.78 100,36.93 "/>
     <polygon id="_632" class="fil58" points="0,36.83 0,36.68 100,36.68 100,36.83 "/>
     <polygon id="_633" class="fil58" points="0,36.73 0,36.58 100,36.58 100,36.73 "/>
     <polygon id="_634" class="fil58" points="0,36.63 0,36.48 100,36.48 100,36.63 "/>
     <polygon id="_635" class="fil59" points="0,36.53 0,36.38 100,36.38 100,36.53 "/>
     <polygon id="_636" class="fil59" points="0,36.43 0,36.28 100,36.28 100,36.43 "/>
     <polygon id="_637" class="fil59" points="0,36.33 0,36.18 100,36.18 100,36.33 "/>
     <polygon id="_638" class="fil59" points="0,36.23 0,36.08 100,36.08 100,36.23 "/>
     <polygon id="_639" class="fil59" points="0,36.13 0,35.98 100,35.98 100,36.13 "/>
     <polygon id="_640" class="fil59" points="0,36.03 0,35.88 100,35.88 100,36.03 "/>
     <polygon id="_641" class="fil59" points="0,35.93 0,35.78 100,35.78 100,35.93 "/>
     <polygon id="_642" class="fil59" points="0,35.83 0,35.68 100,35.68 100,35.83 "/>
     <polygon id="_643" class="fil59" points="0,35.73 0,35.58 100,35.58 100,35.73 "/>
     <polygon id="_644" class="fil59" points="0,35.63 0,35.48 100,35.48 100,35.63 "/>
     <polygon id="_645" class="fil59" points="0,35.53 0,35.38 100,35.38 100,35.53 "/>
     <polygon id="_646" class="fil59" points="0,35.43 0,35.28 100,35.28 100,35.43 "/>
     <polygon id="_647" class="fil59" points="0,35.33 0,35.18 100,35.18 100,35.33 "/>
     <polygon id="_648" class="fil59" points="0,35.23 0,35.08 100,35.08 100,35.23 "/>
     <polygon id="_649" class="fil59" points="0,35.13 0,34.98 100,34.98 100,35.13 "/>
     <polygon id="_650" class="fil59" points="0,35.03 0,34.88 100,34.88 100,35.03 "/>
     <polygon id="_651" class="fil59" points="0,34.93 0,34.78 100,34.78 100,34.93 "/>
     <polygon id="_652" class="fil59" points="0,34.83 0,34.68 100,34.68 100,34.83 "/>
     <polygon id="_653" class="fil60" points="0,34.72 0,34.57 100,34.57 100,34.72 "/>
     <polygon id="_654" class="fil60" points="0,34.63 0,34.48 100,34.48 100,34.63 "/>
     <polygon id="_655" class="fil60" points="0,34.53 0,34.38 100,34.38 100,34.53 "/>
     <polygon id="_656" class="fil60" points="0,34.42 0,34.27 100,34.27 100,34.42 "/>
     <polygon id="_657" class="fil60" points="0,34.32 0,34.17 100,34.17 100,34.32 "/>
     <polygon id="_658" class="fil60" points="0,34.23 0,34.08 100,34.08 100,34.23 "/>
     <polygon id="_659" class="fil60" points="0,34.12 0,33.97 100,33.97 100,34.12 "/>
     <polygon id="_660" class="fil60" points="0,34.02 0,33.87 100,33.87 100,34.02 "/>
     <polygon id="_661" class="fil60" points="0,33.92 0,33.77 100,33.77 100,33.92 "/>
     <polygon id="_662" class="fil60" points="0,33.82 0,33.67 100,33.67 100,33.82 "/>
     <polygon id="_663" class="fil60" points="0,33.72 0,33.57 100,33.57 100,33.72 "/>
     <polygon id="_664" class="fil60" points="0,33.62 0,33.47 100,33.47 100,33.62 "/>
     <polygon id="_665" class="fil61" points="0,33.52 0,33.37 100,33.37 100,33.52 "/>
     <polygon id="_666" class="fil61" points="0,33.42 0,33.27 100,33.27 100,33.42 "/>
     <polygon id="_667" class="fil61" points="0,33.32 0,33.17 100,33.17 100,33.32 "/>
     <polygon id="_668" class="fil61" points="0,33.22 0,33.07 100,33.07 100,33.22 "/>
     <polygon id="_669" class="fil61" points="0,33.12 0,32.97 100,32.97 100,33.12 "/>
     <polygon id="_670" class="fil61" points="0,33.02 0,32.87 100,32.87 100,33.02 "/>
     <polygon id="_671" class="fil61" points="0,32.92 0,32.77 100,32.77 100,32.92 "/>
     <polygon id="_672" class="fil62" points="0,32.82 0,32.67 100,32.67 100,32.82 "/>
     <polygon id="_673" class="fil62" points="0,32.72 0,32.57 100,32.57 100,32.72 "/>
     <polygon id="_674" class="fil62" points="0,32.62 0,32.47 100,32.47 100,32.62 "/>
     <polygon id="_675" class="fil62" points="0,32.52 0,32.37 100,32.37 100,32.52 "/>
     <polygon id="_676" class="fil62" points="0,32.42 0,32.27 100,32.27 100,32.42 "/>
     <polygon id="_677" class="fil62" points="0,32.32 0,32.17 100,32.17 100,32.32 "/>
     <polygon id="_678" class="fil62" points="0,32.22 0,32.07 100,32.07 100,32.22 "/>
     <polygon id="_679" class="fil62" points="0,32.12 0,31.97 100,31.97 100,32.12 "/>
     <polygon id="_680" class="fil62" points="0,32.02 0,31.87 100,31.87 100,32.02 "/>
     <polygon id="_681" class="fil62" points="0,31.92 0,31.77 100,31.77 100,31.92 "/>
     <polygon id="_682" class="fil62" points="0,31.82 0,31.67 100,31.67 100,31.82 "/>
     <polygon id="_683" class="fil62" points="0,31.72 0,31.57 100,31.57 100,31.72 "/>
     <polygon id="_684" class="fil62" points="0,31.62 0,31.47 100,31.47 100,31.62 "/>
     <polygon id="_685" class="fil62" points="0,31.52 0,31.37 100,31.37 100,31.52 "/>
     <polygon id="_686" class="fil62" points="0,31.42 0,31.27 100,31.27 100,31.42 "/>
     <polygon id="_687" class="fil62" points="0,31.32 0,31.17 100,31.17 100,31.32 "/>
     <polygon id="_688" class="fil62" points="0,31.22 0,31.07 100,31.07 100,31.22 "/>
     <polygon id="_689" class="fil62" points="0,31.12 0,30.97 100,30.97 100,31.12 "/>
     <polygon id="_690" class="fil62" points="0,31.02 0,30.87 100,30.87 100,31.02 "/>
     <polygon id="_691" class="fil63" points="0,30.92 0,30.77 100,30.77 100,30.92 "/>
     <polygon id="_692" class="fil63" points="0,30.82 0,30.67 100,30.67 100,30.82 "/>
     <polygon id="_693" class="fil63" points="0,30.72 0,30.57 100,30.57 100,30.72 "/>
     <polygon id="_694" class="fil63" points="0,30.62 0,30.47 100,30.47 100,30.62 "/>
     <polygon id="_695" class="fil63" points="0,30.52 0,30.37 100,30.37 100,30.52 "/>
     <polygon id="_696" class="fil63" points="0,30.42 0,30.27 100,30.27 100,30.42 "/>
     <polygon id="_697" class="fil63" points="0,30.32 0,30.17 100,30.17 100,30.32 "/>
     <polygon id="_698" class="fil63" points="0,30.22 0,30.07 100,30.07 100,30.22 "/>
     <polygon id="_699" class="fil63" points="0,30.12 0,29.97 100,29.97 100,30.12 "/>
     <polygon id="_700" class="fil63" points="0,30.02 0,29.87 100,29.87 100,30.02 "/>
     <polygon id="_701" class="fil63" points="0,29.92 0,29.77 100,29.77 100,29.92 "/>
     <polygon id="_702" class="fil63" points="0,29.82 0,29.67 100,29.67 100,29.82 "/>
     <polygon id="_703" class="fil63" points="0,29.72 0,29.57 100,29.57 100,29.72 "/>
     <polygon id="_704" class="fil64" points="0,29.62 0,29.47 100,29.47 100,29.62 "/>
     <polygon id="_705" class="fil64" points="0,29.52 0,29.37 100,29.37 100,29.52 "/>
     <polygon id="_706" class="fil64" points="0,29.42 0,29.27 100,29.27 100,29.42 "/>
     <polygon id="_707" class="fil64" points="0,29.32 0,29.17 100,29.17 100,29.32 "/>
     <polygon id="_708" class="fil64" points="0,29.22 0,29.07 100,29.07 100,29.22 "/>
     <polygon id="_709" class="fil64" points="0,29.12 0,28.97 100,28.97 100,29.12 "/>
     <polygon id="_710" class="fil64" points="0,29.02 0,28.87 100,28.87 100,29.02 "/>
     <polygon id="_711" class="fil64" points="0,28.92 0,28.77 100,28.77 100,28.92 "/>
     <polygon id="_712" class="fil64" points="0,28.82 0,28.67 100,28.67 100,28.82 "/>
     <polygon id="_713" class="fil65" points="0,28.72 0,28.57 100,28.57 100,28.72 "/>
     <polygon id="_714" class="fil65" points="0,28.62 0,28.47 100,28.47 100,28.62 "/>
     <polygon id="_715" class="fil65" points="0,28.52 0,28.37 100,28.37 100,28.52 "/>
     <polygon id="_716" class="fil65" points="0,28.42 0,28.27 100,28.27 100,28.42 "/>
     <polygon id="_717" class="fil65" points="0,28.32 0,28.17 100,28.17 100,28.32 "/>
     <polygon id="_718" class="fil65" points="0,28.22 0,28.07 100,28.07 100,28.22 "/>
     <polygon id="_719" class="fil65" points="0,28.12 0,27.97 100,27.97 100,28.12 "/>
     <polygon id="_720" class="fil65" points="0,28.02 0,27.87 100,27.87 100,28.02 "/>
     <polygon id="_721" class="fil65" points="0,27.92 0,27.77 100,27.77 100,27.92 "/>
     <polygon id="_722" class="fil65" points="0,27.82 0,27.67 100,27.67 100,27.82 "/>
     <polygon id="_723" class="fil65" points="0,27.72 0,27.57 100,27.57 100,27.72 "/>
     <polygon id="_724" class="fil65" points="0,27.62 0,27.47 100,27.47 100,27.62 "/>
     <polygon id="_725" class="fil65" points="0,27.52 0,27.37 100,27.37 100,27.52 "/>
     <polygon id="_726" class="fil65" points="0,27.42 0,27.27 100,27.27 100,27.42 "/>
     <polygon id="_727" class="fil65" points="0,27.32 0,27.17 100,27.17 100,27.32 "/>
     <polygon id="_728" class="fil65" points="0,27.22 0,27.07 100,27.07 100,27.22 "/>
     <polygon id="_729" class="fil65" points="0,27.12 0,26.97 100,26.97 100,27.12 "/>
     <polygon id="_730" class="fil65" points="0,27.02 0,26.87 100,26.87 100,27.02 "/>
     <polygon id="_731" class="fil65" points="0,26.92 0,26.77 100,26.77 100,26.92 "/>
     <polygon id="_732" class="fil65" points="0,26.82 0,26.67 100,26.67 100,26.82 "/>
     <polygon id="_733" class="fil65" points="0,26.72 0,26.57 100,26.57 100,26.72 "/>
     <polygon id="_734" class="fil65" points="0,26.62 0,26.47 100,26.47 100,26.62 "/>
     <polygon id="_735" class="fil65" points="0,26.52 0,26.37 100,26.37 100,26.52 "/>
     <polygon id="_736" class="fil66" points="0,26.42 0,26.27 100,26.27 100,26.42 "/>
     <polygon id="_737" class="fil66" points="0,26.32 0,26.17 100,26.17 100,26.32 "/>
     <polygon id="_738" class="fil66" points="0,26.22 0,26.07 100,26.07 100,26.22 "/>
     <polygon id="_739" class="fil66" points="0,26.12 0,25.97 100,25.97 100,26.12 "/>
     <polygon id="_740" class="fil66" points="0,26.02 0,25.87 100,25.87 100,26.02 "/>
     <polygon id="_741" class="fil66" points="0,25.92 0,25.77 100,25.77 100,25.92 "/>
     <polygon id="_742" class="fil66" points="0,25.82 0,25.67 100,25.67 100,25.82 "/>
     <polygon id="_743" class="fil66" points="0,25.72 0,25.57 100,25.57 100,25.72 "/>
     <polygon id="_744" class="fil66" points="0,25.62 0,25.47 100,25.47 100,25.62 "/>
     <polygon id="_745" class="fil66" points="0,25.52 0,25.37 100,25.37 100,25.52 "/>
     <polygon id="_746" class="fil66" points="0,25.42 0,25.27 100,25.27 100,25.42 "/>
     <polygon id="_747" class="fil66" points="0,25.32 0,25.17 100,25.17 100,25.32 "/>
     <polygon id="_748" class="fil66" points="0,25.22 0,25.07 100,25.07 100,25.22 "/>
     <polygon id="_749" class="fil66" points="0,25.12 0,24.97 100,24.97 100,25.12 "/>
     <polygon id="_750" class="fil66" points="0,25.01 0,24.86 100,24.86 100,25.01 "/>
     <polygon id="_751" class="fil67" points="0,24.92 0,24.77 100,24.77 100,24.92 "/>
     <polygon id="_752" class="fil67" points="0,24.82 0,24.67 100,24.67 100,24.82 "/>
     <polygon id="_753" class="fil67" points="0,24.71 0,24.56 100,24.56 100,24.71 "/>
     <polygon id="_754" class="fil67" points="0,24.61 0,24.46 100,24.46 100,24.61 "/>
     <polygon id="_755" class="fil67" points="0,24.52 0,24.37 100,24.37 100,24.52 "/>
     <polygon id="_756" class="fil67" points="0,24.41 0,24.26 100,24.26 100,24.41 "/>
     <polygon id="_757" class="fil67" points="0,24.31 0,24.16 100,24.16 100,24.31 "/>
     <polygon id="_758" class="fil67" points="0,24.21 0,24.06 100,24.06 100,24.21 "/>
     <polygon id="_759" class="fil67" points="0,24.11 0,23.96 100,23.96 100,24.11 "/>
     <polygon id="_760" class="fil67" points="0,24.01 0,23.86 100,23.86 100,24.01 "/>
     <polygon id="_761" class="fil67" points="0,23.91 0,23.76 100,23.76 100,23.91 "/>
     <polygon id="_762" class="fil67" points="0,23.81 0,23.66 100,23.66 100,23.81 "/>
     <polygon id="_763" class="fil68" points="0,23.71 0,23.56 100,23.56 100,23.71 "/>
     <polygon id="_764" class="fil68" points="0,23.61 0,23.46 100,23.46 100,23.61 "/>
     <polygon id="_765" class="fil68" points="0,23.51 0,23.36 100,23.36 100,23.51 "/>
     <polygon id="_766" class="fil68" points="0,23.41 0,23.26 100,23.26 100,23.41 "/>
     <polygon id="_767" class="fil68" points="0,23.31 0,23.16 100,23.16 100,23.31 "/>
     <polygon id="_768" class="fil68" points="0,23.21 0,23.06 100,23.06 100,23.21 "/>
     <polygon id="_769" class="fil68" points="0,23.11 0,22.96 100,22.96 100,23.11 "/>
     <polygon id="_770" class="fil68" points="0,23.01 0,22.86 100,22.86 100,23.01 "/>
     <polygon id="_771" class="fil68" points="0,22.91 0,22.76 100,22.76 100,22.91 "/>
     <polygon id="_772" class="fil68" points="0,22.81 0,22.66 100,22.66 100,22.81 "/>
     <polygon id="_773" class="fil68" points="0,22.71 0,22.56 100,22.56 100,22.71 "/>
     <polygon id="_774" class="fil68" points="0,22.61 0,22.46 100,22.46 100,22.61 "/>
     <polygon id="_775" class="fil68" points="0,22.51 0,22.36 100,22.36 100,22.51 "/>
     <polygon id="_776" class="fil68" points="0,22.41 0,22.26 100,22.26 100,22.41 "/>
     <polygon id="_777" class="fil68" points="0,22.31 0,22.16 100,22.16 100,22.31 "/>
     <polygon id="_778" class="fil68" points="0,22.21 0,22.06 100,22.06 100,22.21 "/>
     <polygon id="_779" class="fil68" points="0,22.11 0,21.96 100,21.96 100,22.11 "/>
     <polygon id="_780" class="fil68" points="0,22.01 0,21.86 100,21.86 100,22.01 "/>
     <polygon id="_781" class="fil68" points="0,21.91 0,21.76 100,21.76 100,21.91 "/>
     <polygon id="_782" class="fil68" points="0,21.81 0,21.66 100,21.66 100,21.81 "/>
     <polygon id="_783" class="fil68" points="0,21.71 0,21.56 100,21.56 100,21.71 "/>
     <polygon id="_784" class="fil68" points="0,21.61 0,21.46 100,21.46 100,21.61 "/>
     <polygon id="_785" class="fil68" points="0,21.51 0,21.36 100,21.36 100,21.51 "/>
     <polygon id="_786" class="fil68" points="0,21.41 0,21.26 100,21.26 100,21.41 "/>
     <polygon id="_787" class="fil68" points="0,21.31 0,21.16 100,21.16 100,21.31 "/>
     <polygon id="_788" class="fil68" points="0,21.21 0,21.06 100,21.06 100,21.21 "/>
     <polygon id="_789" class="fil68" points="0,21.11 0,20.96 100,20.96 100,21.11 "/>
     <polygon id="_790" class="fil68" points="0,21.01 0,20.86 100,20.86 100,21.01 "/>
     <polygon id="_791" class="fil68" points="0,20.91 0,20.76 100,20.76 100,20.91 "/>
     <polygon id="_792" class="fil68" points="0,20.81 0,20.66 100,20.66 100,20.81 "/>
     <polygon id="_793" class="fil68" points="0,20.71 0,20.56 100,20.56 100,20.71 "/>
     <polygon id="_794" class="fil68" points="0,20.61 0,20.46 100,20.46 100,20.61 "/>
     <polygon id="_795" class="fil69" points="0,20.51 0,20.36 100,20.36 100,20.51 "/>
     <polygon id="_796" class="fil69" points="0,20.41 0,20.26 100,20.26 100,20.41 "/>
     <polygon id="_797" class="fil69" points="0,20.31 0,20.16 100,20.16 100,20.31 "/>
     <polygon id="_798" class="fil69" points="0,20.21 0,20.06 100,20.06 100,20.21 "/>
     <polygon id="_799" class="fil69" points="0,20.11 0,19.96 100,19.96 100,20.11 "/>
     <polygon id="_800" class="fil69" points="0,20.01 0,19.86 100,19.86 100,20.01 "/>
     <polygon id="_801" class="fil69" points="0,19.91 0,19.76 100,19.76 100,19.91 "/>
     <polygon id="_802" class="fil69" points="0,19.81 0,19.66 100,19.66 100,19.81 "/>
     <polygon id="_803" class="fil69" points="0,19.71 0,19.56 100,19.56 100,19.71 "/>
     <polygon id="_804" class="fil69" points="0,19.61 0,19.46 100,19.46 100,19.61 "/>
     <polygon id="_805" class="fil69" points="0,19.51 0,19.36 100,19.36 100,19.51 "/>
     <polygon id="_806" class="fil69" points="0,19.41 0,19.26 100,19.26 100,19.41 "/>
     <polygon id="_807" class="fil69" points="0,19.31 0,19.16 100,19.16 100,19.31 "/>
     <polygon id="_808" class="fil69" points="0,19.21 0,19.06 100,19.06 100,19.21 "/>
     <polygon id="_809" class="fil69" points="0,19.11 0,18.96 100,18.96 100,19.11 "/>
     <polygon id="_810" class="fil69" points="0,19.01 0,18.86 100,18.86 100,19.01 "/>
     <polygon id="_811" class="fil69" points="0,18.91 0,18.76 100,18.76 100,18.91 "/>
     <polygon id="_812" class="fil69" points="0,18.81 0,18.66 100,18.66 100,18.81 "/>
     <polygon id="_813" class="fil69" points="0,18.71 0,18.56 100,18.56 100,18.71 "/>
     <polygon id="_814" class="fil69" points="0,18.61 0,18.46 100,18.46 100,18.61 "/>
     <polygon id="_815" class="fil69" points="0,18.51 0,18.36 100,18.36 100,18.51 "/>
     <polygon id="_816" class="fil70" points="0,18.41 0,18.26 100,18.26 100,18.41 "/>
     <polygon id="_817" class="fil70" points="0,18.31 0,18.16 100,18.16 100,18.31 "/>
     <polygon id="_818" class="fil70" points="0,18.21 0,18.06 100,18.06 100,18.21 "/>
     <polygon id="_819" class="fil70" points="0,18.11 0,17.96 100,17.96 100,18.11 "/>
     <polygon id="_820" class="fil70" points="0,18.01 0,17.86 100,17.86 100,18.01 "/>
     <polygon id="_821" class="fil70" points="0,17.91 0,17.76 100,17.76 100,17.91 "/>
     <polygon id="_822" class="fil70" points="0,17.81 0,17.66 100,17.66 100,17.81 "/>
     <polygon id="_823" class="fil70" points="0,17.71 0,17.56 100,17.56 100,17.71 "/>
     <polygon id="_824" class="fil70" points="0,17.61 0,17.46 100,17.46 100,17.61 "/>
     <polygon id="_825" class="fil70" points="0,17.51 0,17.36 100,17.36 100,17.51 "/>
     <polygon id="_826" class="fil70" points="0,17.41 0,17.26 100,17.26 100,17.41 "/>
     <polygon id="_827" class="fil70" points="0,17.31 0,17.16 100,17.16 100,17.31 "/>
     <polygon id="_828" class="fil70" points="0,17.21 0,17.06 100,17.06 100,17.21 "/>
     <polygon id="_829" class="fil70" points="0,17.11 0,16.96 100,16.96 100,17.11 "/>
     <polygon id="_830" class="fil70" points="0,17.01 0,16.86 100,16.86 100,17.01 "/>
     <polygon id="_831" class="fil70" points="0,16.91 0,16.76 100,16.76 100,16.91 "/>
     <polygon id="_832" class="fil70" points="0,16.81 0,16.66 100,16.66 100,16.81 "/>
     <polygon id="_833" class="fil70" points="0,16.71 0,16.56 100,16.56 100,16.71 "/>
     <polygon id="_834" class="fil70" points="0,16.61 0,16.46 100,16.46 100,16.61 "/>
     <polygon id="_835" class="fil70" points="0,16.51 0,16.36 100,16.36 100,16.51 "/>
     <polygon id="_836" class="fil70" points="0,16.41 0,16.26 100,16.26 100,16.41 "/>
     <polygon id="_837" class="fil70" points="0,16.31 0,16.16 100,16.16 100,16.31 "/>
     <polygon id="_838" class="fil70" points="0,16.21 0,16.06 100,16.06 100,16.21 "/>
     <polygon id="_839" class="fil70" points="0,16.11 0,15.96 100,15.96 100,16.11 "/>
     <polygon id="_840" class="fil71" points="0,16.01 0,15.86 100,15.86 100,16.01 "/>
     <polygon id="_841" class="fil71" points="0,15.91 0,15.76 100,15.76 100,15.91 "/>
     <polygon id="_842" class="fil71" points="0,15.81 0,15.66 100,15.66 100,15.81 "/>
     <polygon id="_843" class="fil71" points="0,15.71 0,15.56 100,15.56 100,15.71 "/>
     <polygon id="_844" class="fil71" points="0,15.61 0,15.46 100,15.46 100,15.61 "/>
     <polygon id="_845" class="fil71" points="0,15.51 0,15.36 100,15.36 100,15.51 "/>
     <polygon id="_846" class="fil71" points="0,15.41 0,15.26 100,15.26 100,15.41 "/>
     <polygon id="_847" class="fil71" points="0,15.31 0,15.15 100,15.15 100,15.31 "/>
     <polygon id="_848" class="fil71" points="0,15.21 0,15.06 100,15.06 100,15.21 "/>
     <polygon id="_849" class="fil71" points="0,15.11 0,14.96 100,14.96 100,15.11 "/>
     <polygon id="_850" class="fil71" points="0,15 0,14.85 100,14.85 100,15 "/>
     <polygon id="_851" class="fil71" points="0,14.9 0,14.75 100,14.75 100,14.9 "/>
     <polygon id="_852" class="fil71" points="0,14.81 0,14.66 100,14.66 100,14.81 "/>
     <polygon id="_853" class="fil71" points="0,14.7 0,14.55 100,14.55 100,14.7 "/>
     <polygon id="_854" class="fil71" points="0,14.6 0,14.45 100,14.45 100,14.6 "/>
     <polygon id="_855" class="fil71" points="0,14.5 0,14.35 100,14.35 100,14.5 "/>
     <polygon id="_856" class="fil71" points="0,14.4 0,14.25 100,14.25 100,14.4 "/>
     <polygon id="_857" class="fil71" points="0,14.3 0,14.15 100,14.15 100,14.3 "/>
     <polygon id="_858" class="fil71" points="0,14.2 0,14.05 100,14.05 100,14.2 "/>
     <polygon id="_859" class="fil71" points="0,14.1 0,13.95 100,13.95 100,14.1 "/>
     <polygon id="_860" class="fil71" points="0,14 0,13.85 100,13.85 100,14 "/>
     <polygon id="_861" class="fil71" points="0,13.9 0,13.75 100,13.75 100,13.9 "/>
     <polygon id="_862" class="fil71" points="0,13.8 0,13.65 100,13.65 100,13.8 "/>
     <polygon id="_863" class="fil71" points="0,13.7 0,13.55 100,13.55 100,13.7 "/>
     <polygon id="_864" class="fil71" points="0,13.6 0,13.45 100,13.45 100,13.6 "/>
     <polygon id="_865" class="fil71" points="0,13.5 0,13.35 100,13.35 100,13.5 "/>
     <polygon id="_866" class="fil71" points="0,13.4 0,13.25 100,13.25 100,13.4 "/>
     <polygon id="_867" class="fil71" points="0,13.3 0,13.15 100,13.15 100,13.3 "/>
     <polygon id="_868" class="fil71" points="0,13.2 0,13.05 100,13.05 100,13.2 "/>
     <polygon id="_869" class="fil71" points="0,13.1 0,12.95 100,12.95 100,13.1 "/>
     <polygon id="_870" class="fil71" points="0,13 0,12.85 100,12.85 100,13 "/>
     <polygon id="_871" class="fil71" points="0,12.9 0,12.75 100,12.75 100,12.9 "/>
     <polygon id="_872" class="fil71" points="0,12.8 0,12.65 100,12.65 100,12.8 "/>
     <polygon id="_873" class="fil71" points="0,12.7 0,12.55 100,12.55 100,12.7 "/>
     <polygon id="_874" class="fil71" points="0,12.6 0,12.45 100,12.45 100,12.6 "/>
     <polygon id="_875" class="fil71" points="0,12.5 0,12.35 100,12.35 100,12.5 "/>
     <polygon id="_876" class="fil71" points="0,12.4 0,12.25 100,12.25 100,12.4 "/>
     <polygon id="_877" class="fil71" points="0,12.3 0,12.15 100,12.15 100,12.3 "/>
     <polygon id="_878" class="fil71" points="0,12.2 0,12.05 100,12.05 100,12.2 "/>
     <polygon id="_879" class="fil71" points="0,12.1 0,11.95 100,11.95 100,12.1 "/>
     <polygon id="_880" class="fil71" points="0,12 0,11.85 100,11.85 100,12 "/>
     <polygon id="_881" class="fil71" points="0,11.9 0,11.75 100,11.75 100,11.9 "/>
     <polygon id="_882" class="fil71" points="0,11.8 0,11.65 100,11.65 100,11.8 "/>
     <polygon id="_883" class="fil71" points="0,11.7 0,11.55 100,11.55 100,11.7 "/>
     <polygon id="_884" class="fil71" points="0,11.6 0,11.45 100,11.45 100,11.6 "/>
     <polygon id="_885" class="fil71" points="0,11.5 0,11.35 100,11.35 100,11.5 "/>
     <polygon id="_886" class="fil71" points="0,11.4 0,11.25 100,11.25 100,11.4 "/>
     <polygon id="_887" class="fil71" points="0,11.3 0,11.15 100,11.15 100,11.3 "/>
     <polygon id="_888" class="fil71" points="0,11.2 0,11.05 100,11.05 100,11.2 "/>
     <polygon id="_889" class="fil71" points="0,11.1 0,10.95 100,10.95 100,11.1 "/>
     <polygon id="_890" class="fil71" points="0,11 0,10.85 100,10.85 100,11 "/>
     <polygon id="_891" class="fil71" points="0,10.9 0,10.75 100,10.75 100,10.9 "/>
     <polygon id="_892" class="fil71" points="0,10.8 0,10.65 100,10.65 100,10.8 "/>
     <polygon id="_893" class="fil71" points="0,10.7 0,10.55 100,10.55 100,10.7 "/>
     <polygon id="_894" class="fil71" points="0,10.6 0,10.45 100,10.45 100,10.6 "/>
     <polygon id="_895" class="fil71" points="0,10.5 0,10.35 100,10.35 100,10.5 "/>
     <polygon id="_896" class="fil71" points="0,10.4 0,10.25 100,10.25 100,10.4 "/>
     <polygon id="_897" class="fil71" points="0,10.3 0,10.15 100,10.15 100,10.3 "/>
     <polygon id="_898" class="fil71" points="0,10.2 0,10.05 100,10.05 100,10.2 "/>
     <polygon id="_899" class="fil71" points="0,10.1 0,0 100,0 100,10.1 "/>
    </g>
   </g>
   <path class="fil72" d="M25.13 74.46c0,0.22 -0.06,0.41 -0.16,0.55 -0.11,0.17 -0.29,0.29 -0.56,0.38 -0.25,0.1 -0.6,0.18 -1.03,0.24 -0.45,0.07 -0.99,0.1 -1.65,0.1 -0.63,0 -1.17,-0.03 -1.61,-0.1 -0.45,-0.06 -0.81,-0.14 -1.06,-0.24 -0.28,-0.09 -0.45,-0.21 -0.56,-0.38 -0.11,-0.14 -0.16,-0.33 -0.16,-0.55l0 -49c0,-0.22 0.05,-0.41 0.18,-0.55 0.12,-0.17 0.32,-0.29 0.59,-0.38 0.28,-0.1 0.63,-0.18 1.06,-0.24 0.43,-0.07 0.96,-0.1 1.56,-0.1 0.66,0 1.2,0.03 1.65,0.1 0.43,0.06 0.78,0.14 1.03,0.24 0.27,0.09 0.45,0.21 0.56,0.38 0.1,0.14 0.16,0.33 0.16,0.55l0 49zm45.55 -47.12c0,0.5 -0.02,0.93 -0.07,1.3 -0.06,0.36 -0.14,0.65 -0.26,0.88 -0.12,0.22 -0.26,0.39 -0.43,0.49 -0.18,0.1 -0.37,0.16 -0.57,0.16l-14.33 0 0 44.29c0,0.22 -0.06,0.4 -0.17,0.55 -0.1,0.17 -0.28,0.29 -0.55,0.38 -0.25,0.1 -0.61,0.18 -1.04,0.24 -0.44,0.07 -0.98,0.1 -1.64,0.1 -0.63,0 -1.17,-0.03 -1.61,-0.1 -0.45,-0.06 -0.81,-0.14 -1.07,-0.24 -0.26,-0.09 -0.44,-0.21 -0.55,-0.38 -0.11,-0.15 -0.16,-0.33 -0.16,-0.55l0 -44.29 -14.34 0c-0.2,0 -0.39,-0.06 -0.56,-0.16 -0.18,-0.1 -0.31,-0.27 -0.42,-0.49 -0.1,-0.23 -0.19,-0.52 -0.26,-0.88 -0.06,-0.37 -0.09,-0.8 -0.09,-1.3 0,-0.49 0.03,-0.94 0.09,-1.32 0.07,-0.37 0.16,-0.68 0.26,-0.91 0.11,-0.25 0.24,-0.42 0.42,-0.51 0.17,-0.11 0.36,-0.17 0.56,-0.17l35.46 0c0.2,0 0.39,0.06 0.57,0.17 0.17,0.09 0.31,0.26 0.43,0.51 0.12,0.23 0.2,0.54 0.26,0.91 0.05,0.38 0.07,0.83 0.07,1.32zm10.98 16.58c0,0.84 -0.06,1.56 -0.18,2.14 -0.12,0.58 -0.35,1.05 -0.67,1.4 -0.34,0.36 -0.77,0.6 -1.29,0.75 -0.53,0.15 -1.2,0.22 -2.02,0.22 -0.85,0 -1.54,-0.07 -2.06,-0.22 -0.53,-0.15 -0.96,-0.39 -1.27,-0.75 -0.32,-0.35 -0.53,-0.82 -0.66,-1.4 -0.12,-0.58 -0.17,-1.3 -0.17,-2.14 0,-0.89 0.05,-1.63 0.17,-2.22 0.13,-0.6 0.34,-1.08 0.66,-1.43 0.31,-0.37 0.74,-0.61 1.27,-0.76 0.52,-0.14 1.21,-0.21 2.06,-0.21 0.82,0 1.49,0.07 2.02,0.21 0.52,0.15 0.95,0.39 1.29,0.76 0.32,0.35 0.55,0.83 0.67,1.43 0.12,0.59 0.18,1.33 0.18,2.22zm0 27.34c0,0.88 -0.06,1.6 -0.18,2.18 -0.12,0.58 -0.35,1.05 -0.67,1.4 -0.34,0.36 -0.77,0.61 -1.29,0.75 -0.53,0.15 -1.2,0.22 -2.02,0.22 -0.85,0 -1.54,-0.07 -2.06,-0.22 -0.53,-0.14 -0.96,-0.39 -1.27,-0.75 -0.32,-0.35 -0.53,-0.82 -0.66,-1.4 -0.12,-0.58 -0.17,-1.3 -0.17,-2.18 0,-0.86 0.05,-1.59 0.17,-2.18 0.13,-0.59 0.34,-1.07 0.66,-1.42 0.31,-0.33 0.74,-0.59 1.27,-0.74 0.52,-0.16 1.21,-0.24 2.06,-0.24 0.82,0 1.49,0.08 2.02,0.24 0.52,0.15 0.95,0.41 1.29,0.74 0.32,0.35 0.55,0.83 0.67,1.42 0.12,0.59 0.18,1.32 0.18,2.18z"/>
  </g>
 </g>
</svg>
